<?xml version="1.0" encoding="utf-8"?>
<!DOCTYPE svg PUBLIC "-//W3C//DTD SVG 1.0//EN" "http://www.w3.org/TR/2001/REC-SVG-20010904/DTD/svg10.dtd">
<svg version="1.0" xmlns="http://www.w3.org/2000/svg" width="2560px" height="754px" viewBox="0 0 2560 754" preserveAspectRatio="xMidYMid meet">
 <g fill="#ffffff">
  <path d="M1445.4 647.5 c-17.2 -3.8 -32.6 -13.8 -43.9 -28.5 -6.2 -8.1 -9.5 -14.9 -9.5 -19.6 l0 -4 14.9 -6.2 c8.3 -3.4 16.3 -6.2 18 -6.2 2.5 0 3.4 0.8 6 5.3 4.4 7.6 12.3 15.2 20 19 6 2.9 7.4 3.2 16.1 3.2 8.2 0 10.3 -0.4 15.2 -2.7 13.9 -6.5 21.2 -18.4 23.4 -37.7 0.8 -7.1 1.3 -7 -6.4 -1.8 -9.3 6.3 -23.2 9.3 -39.1 8.4 -17.3 -1 -29.9 -5.6 -43.5 -15.8 -13 -9.9 -24.7 -27.3 -29.1 -43.4 -2.6 -9.4 -3.1 -32.2 -1 -42.6 5.1 -25.6 20.9 -46.1 44.4 -57.9 10.1 -5 19.5 -7 33.9 -7 16.9 0 27.8 3.1 38 10.7 l3.2 2.4 0 -4.5 0 -4.6 19.5 0 19.6 0 -0.3 86.3 c-0.3 85.6 -0.4 86.3 -2.6 94.2 -8 28.9 -26.9 47.3 -54.4 52.9 -9.5 2 -33.6 2 -42.4 0.1z m37.3 -112.6 c11.7 -5.7 20.2 -16.6 23.8 -30.6 5.5 -21.2 -6.6 -46.1 -26.3 -53.8 -6.1 -2.4 -8.1 -2.7 -14.2 -2.3 -26.5 1.9 -45.8 32.6 -37 58.8 8.4 25.2 33.1 38.1 53.7 27.9z"/>
  <path d="M2249 640.6 c0 -2.3 5.7 -16 17 -41.1 9.4 -20.7 17 -38.1 17 -38.5 0 -0.5 -13.7 -32.1 -30.5 -70.3 -21.7 -49.4 -30.5 -70.5 -30.5 -73.1 l0 -3.6 21.4 0 c15.9 0 21.6 0.3 22.3 1.3 0.6 0.6 9.7 22.5 20.3 48.5 l19.4 47.3 9.9 -25.3 c5.5 -13.9 14.1 -35.6 19.1 -48.3 l9.1 -23 22.3 -0.3 22.2 -0.2 0 4.1 c0 3.3 -10 27.2 -48.2 115.1 l-48.2 110.8 -21.3 0 -21.3 0 0 -3.4z"/>
  <path d="M890 576.4 c-18.9 -2.7 -31.3 -6.5 -45.4 -13.7 -45.4 -23.2 -72.2 -70.2 -69.2 -121.2 2.1 -34.2 14.4 -61.4 38.3 -84.6 14.8 -14.4 30.2 -23.8 48.6 -29.7 12.7 -4.1 16.5 -4.9 29.7 -6.2 35.4 -3.6 67.6 5.6 94.1 26.8 7.3 5.9 7.9 6.6 7.9 10 0 3.4 -1 4.7 -11.8 15.5 -14 13.9 -15.4 14.4 -23 7.6 -7.1 -6.2 -18.2 -12.3 -29 -15.9 -42.7 -14.1 -90.8 11.2 -106.4 56 -14.1 40.7 4.9 86.2 44.2 106 24.3 12.2 50.5 12.5 74.7 0.9 21.4 -10.3 35.4 -27.7 39.8 -49.6 l0.7 -3.3 -40.4 -0.2 -40.3 -0.3 0 -20 0 -20 59.9 -0.3 c41 -0.1 60.3 0.1 61 0.8 0.7 0.7 1.2 8.4 1.5 19.4 0.5 27 -2.8 44.5 -11.9 62.8 -5 10.1 -8.8 15.5 -16.8 24 -18.4 19.5 -42.4 31.2 -70.7 34.7 -8.3 1 -29.7 1.3 -35.5 0.5z"/>
  <path d="M1101.5 576.4 c-29.9 -4.6 -54.1 -23.5 -64.4 -50.3 -4.1 -10.6 -5.1 -17.3 -5.1 -33.5 0 -22 4.4 -36.3 15.9 -51.8 9.4 -12.6 26.8 -24.2 43.1 -28.5 9.3 -2.6 39.7 -2.6 49 0 26.5 7.2 46.3 25.9 55.3 52.2 2.8 8.3 3.1 10.3 3.5 25.5 0.3 14.2 0.1 17.7 -1.7 25.2 -7.1 29.8 -28 51 -58.7 59.3 -5.8 1.6 -30.4 2.9 -36.9 1.9z m23.4 -39.3 c8.5 -2.6 14 -6.1 20 -12.7 13.7 -15 16.4 -33.7 7.3 -52.2 -3.8 -7.9 -12.2 -16.1 -20.7 -20.3 -6.4 -3.1 -7.7 -3.4 -16 -3.4 -8.2 0 -9.7 0.3 -15.6 3.2 -15.1 7.5 -24.3 20.5 -26.4 37.6 -1.4 11.2 3.9 26 12.7 35.3 6.1 6.4 11.5 9.9 19.6 12.5 7.4 2.3 11.6 2.3 19.1 0z"/>
  <path d="M1275 575.9 c-25.9 -4.6 -49.4 -22.6 -59.6 -45.6 -5.6 -12.5 -6.9 -19.6 -6.8 -37.3 0.1 -19.6 1.7 -26.9 9.1 -41.3 3.7 -7.2 6.6 -11 13.3 -17.8 9.9 -10 18.6 -15.4 32.1 -20.1 8.7 -2.9 10.6 -3.2 25.9 -3.6 14.1 -0.3 17.7 -0.1 25 1.6 28.5 6.8 50.5 27.4 58.5 54.7 3.9 12.9 4.5 32.9 1.7 46.8 -6.2 29.6 -27.4 52.2 -57.2 60.7 -8.6 2.5 -32.6 3.6 -42 1.9z m30.2 -39.9 c6.7 -2.5 16.1 -10 20.4 -16.3 12.7 -18.4 10.7 -42.9 -4.8 -58.6 -17.5 -17.8 -41.5 -17.3 -58.5 1.2 -16.6 18.1 -16.1 45.5 1.2 63.2 12.1 12.4 26.8 16.1 41.7 10.5z"/>
  <path d="M1685.5 576.3 c-25.8 -3.4 -49.2 -20 -60.3 -42.8 -9.2 -18.8 -11.4 -45 -5.7 -67 5.2 -20.2 19.6 -38.5 37.5 -47.9 12.4 -6.5 17.9 -7.8 35 -8.3 18.5 -0.6 25.2 0.6 38 6.9 10.5 5.2 23.5 17.5 29.9 28.4 6.3 10.7 11.3 23.2 10.9 27.3 l-0.3 3.5 -52.1 21.6 c-45 18.5 -52.1 21.7 -51.3 23.2 1.8 3.3 10.3 11 14.8 13.3 16.3 8.2 33.3 4.6 47.8 -10.2 5.5 -5.6 7.8 -7.3 10 -7.3 1.8 0 7.3 3 16 8.8 l13.3 8.7 0 4.1 c0 3.8 -0.6 4.9 -7.2 11.9 -17.2 18.4 -36.7 26.6 -62.8 26.3 -5.8 0 -11.8 -0.3 -13.5 -0.5z m3 -103.8 c15.4 -6.4 29.1 -12.1 30.4 -12.6 l2.4 -1 -2.4 -2.5 c-1.3 -1.4 -5.3 -3.9 -8.8 -5.7 -5.4 -2.6 -7.8 -3.2 -13.1 -3.2 -13.3 0 -28.6 10.8 -35 24.7 -3.5 7.9 -4.8 13.3 -2.9 12.5 0.8 -0.3 14 -5.8 29.4 -12.2z"/>
  <path d="M2131.2 576 c-25.2 -2.8 -45.2 -18.8 -50.1 -40 -1.3 -5.8 -1.4 -23.2 0 -28.9 4.1 -18 21.4 -33.3 44.4 -39.2 15.8 -4 39.5 -3.6 53 1.1 3 1 5.5 1.6 5.5 1.2 0 -2.3 -7.1 -12.1 -10.7 -14.8 -9.4 -7.1 -24 -9.7 -34.1 -6 -6.1 2.2 -12.7 7 -15.2 11.1 -3.2 5.2 -6.9 4.8 -25.1 -2.7 -14.5 -6 -14.9 -6.3 -14.9 -9.2 0 -5.1 4 -11.8 11.9 -19.7 8.6 -8.6 19.1 -14.5 31.6 -17.6 10.8 -2.6 37.3 -2.3 48 0.6 23.5 6.3 39.4 20.3 46.4 40.9 l2.6 7.7 0.3 55.8 0.3 55.7 -20.1 0 -20 0 0 -6.1 0 -6.2 -4.4 4.1 c-11 10.1 -28.7 14.5 -49.4 12.2z m24 -39 c11.9 -3.7 22.5 -13.5 26.9 -24.9 l1.8 -4.9 -5.7 -2.5 c-18.7 -8.2 -41.5 -5.3 -52 6.7 -9 10.3 -3.9 21.1 12.3 26.2 5.7 1.8 9.4 1.7 16.7 -0.6z"/>
  <path d="M1564 450.5 l0 -121.5 20.5 0 20.5 0 0 121.5 0 121.5 -20.5 0 -20.5 0 0 -121.5z"/>
  <path d="M1843 450.5 l0 -121.6 52.3 0.3 c57.8 0.4 57.1 0.4 72.5 7.4 21.5 9.8 37.3 28.9 41.8 50.4 2.5 11.8 1.5 34.1 -1.9 44.1 -8.7 25.4 -30 43.6 -57.9 49.3 -6 1.2 -14.2 1.6 -36.8 1.6 l-29 0 0 45 0 45 -20.5 0 -20.5 0 0 -121.5z m101.3 -10.3 c11.2 -4.5 21.6 -17 24.6 -29.6 3.3 -13.5 -9.2 -33.6 -24.6 -39.7 -5.5 -2.2 -7.4 -2.4 -33 -2.7 l-27.3 -0.3 0 37.6 0 37.6 27.3 -0.3 c25.7 -0.3 27.5 -0.5 33 -2.6z"/>
  <path d="M2025 450.5 l0 -121.5 20.5 0 20.5 0 0 121.5 0 121.5 -20.5 0 -20.5 0 0 -121.5z"/>
  <path d="M826.2 252.5 c-21.2 -4.8 -38.1 -21 -44.9 -43.1 -2.5 -8.3 -2.5 -31.4 0.1 -39.8 6.6 -22 24.2 -38.6 45.4 -43.2 8.7 -1.8 24.8 -1.8 33.7 0.1 8.7 1.8 19.7 7.2 25.8 12.6 4 3.5 4.7 4.6 4.7 7.8 0 3.2 -0.8 4.5 -6.3 9.9 -5.3 5.2 -6.8 6.2 -9.8 6.2 -2.7 0 -4.2 -0.8 -6.9 -3.7 -1.9 -2 -6.4 -5 -10 -6.7 -5.6 -2.6 -7.7 -3.1 -14.6 -3.1 -7.3 0 -8.7 0.3 -15.6 3.8 -24.8 12.2 -30.9 42.4 -12.8 63 14.7 16.6 37.8 18.1 53.7 3.4 4 -3.7 9.3 -12 9.3 -14.7 0 -0.6 -6.7 -1 -19.5 -1 l-19.5 0 0 -11.5 0 -11.5 32.9 0 33 0 -0.6 13.3 c-0.2 7.2 -1.1 15.8 -1.9 18.9 -4.1 17.2 -17.4 31.4 -34.9 37.4 -6.8 2.3 -10 2.8 -21.5 3 -9.2 0.3 -15.5 -0.1 -19.8 -1.1z"/>
  <path d="M1337 252.4 c-21.2 -4.6 -39.3 -22.7 -44.5 -44.5 -2 -8.5 -2 -28 0 -36.7 5 -21.7 23.7 -40.2 45.4 -44.8 8.6 -1.8 23.8 -1.8 32.6 0.1 20.3 4.3 37.5 19.9 44.3 40.2 2.3 6.9 2.6 9.4 2.6 22.3 0 10.9 -0.4 16.1 -1.8 21 -5.7 20.7 -24.1 38.1 -45.1 42.5 -8.7 1.8 -24.9 1.8 -33.5 -0.1z m32.6 -26.4 c7.1 -3.5 15.9 -12.3 19.1 -19.2 3.6 -7.5 4.8 -16 3.4 -23.5 -1.6 -8.9 -4.5 -14.5 -10.9 -21.4 -7.8 -8.5 -16 -12.3 -26.7 -12.4 -7 0 -8.9 0.4 -14.7 3.2 -8.8 4.1 -16 11.3 -20.1 20.1 -2.9 6.1 -3.2 7.5 -3.2 16.7 0 9.1 0.3 10.6 3.1 16.5 9.8 20.7 31.2 29.3 50 20z"/>
  <path d="M915 189.5 l0 -61.5 38.5 0 38.5 0 0 11.5 0 11.5 -26 0 -26 0 0 13.5 0 13.5 23.5 0 23.5 0 0 11.5 0 11.5 -23.5 0 -23.5 0 0 13.5 0 13.5 26 0 26 0 0 11.5 0 11.5 -38.5 0 -38.5 0 0 -61.5z"/>
  <path d="M1028.8 201.3 l-0.3 -49.8 -15.7 -0.3 -15.8 -0.3 0 -11.4 0 -11.5 44 0 44 0 0 11.5 0 11.4 -15.7 0.3 -15.8 0.3 -0.3 49.8 -0.2 49.7 -12 0 -12 0 -0.2 -49.7z"/>
  <path d="M1132 189.5 l0 -61.5 12 0 12 0 0 61.5 0 61.5 -12 0 -12 0 0 -61.5z"/>
  <path d="M1196.8 201.3 l-0.3 -49.8 -15.7 -0.3 -15.8 -0.3 0 -11.4 0 -11.5 44 0 44 0 0 11.5 0 11.5 -16 0 -16 0 0 50 0 50 -12 0 -12 0 -0.2 -49.7z"/>
  <path d="M1428 189.5 l0 -61.5 13.8 0 13.7 0 23 37 23 37 0.3 -37 0.2 -37 12 0 12 0 0 61.5 0 61.5 -12.3 0 -12.4 0 -23.9 -38.5 -23.9 -38.4 -0.3 38.4 -0.2 38.5 -12.5 0 -12.5 0 0 -61.5z"/>
 </g>
 <g fill="#9c9c9b">
  <path d="M57.6 750.5 c-31.9 -13.9 -53.1 -43.1 -56.6 -78.2 -0.8 -7.6 -1 -95.7 -0.8 -300.8 l0.3 -290 2.2 -8 c4.9 -17.8 11.9 -30.7 23.7 -43.2 13 -13.8 28.3 -22.7 47.3 -27.6 l8.8 -2.2 1197.5 0 1197.5 0 8.8 2.2 c19 4.9 34.3 13.8 47.3 27.6 11.8 12.5 19.9 27.7 24 44.7 1.7 7.1 1.9 22.1 2.2 296.5 0.2 199.7 0 292.5 -0.8 300.3 -3.3 35.5 -25.3 65.7 -57.4 79.1 l-7.5 3.1 -1214.3 0 -1214.3 0 -7.9 -3.5z m2423.9 -12.3 c29.9 -8.5 49.8 -28.7 58.2 -59.3 1.7 -6 1.8 -22.6 1.8 -298.9 0 -332.5 0.9 -299.2 -8.8 -318.4 -4.4 -8.6 -6.6 -11.5 -14.7 -19.7 -8.2 -8.3 -10.9 -10.2 -19.7 -14.6 -5.6 -2.8 -13.7 -6 -18 -7 -7.5 -1.7 -46.7 -1.8 -1200.3 -1.8 -1153.6 0 -1192.8 0.1 -1200.3 1.8 -4.3 1 -12.4 4.2 -18 7 -8.8 4.3 -11.5 6.4 -19.8 14.6 -8.2 8.3 -10.3 11 -14.6 19.8 -9.7 19.3 -8.8 -13.9 -8.8 318.3 0 276.3 0.1 292.9 1.8 298.9 4.1 14.9 9.8 25.6 19.1 35.7 12.8 14.1 30.4 23.1 49.3 25.3 3.7 0.5 541.9 0.8 1195.8 0.7 l1189 -0.1 8 -2.3z"/>
 </g>
 <g fill="#f6b60b">
  <path d="M443.7 435.2 c-51 -51 -51.7 -51.8 -51.7 -55.7 0 -4 0.7 -4.7 51.8 -55.8 46.9 -46.9 52 -51.7 54.9 -51.7 2.5 0 16.4 7.6 55.4 30.2 44.7 25.9 53.1 31.2 58.3 36.4 11.3 11.2 15.6 22.6 15.6 41.4 0 19.1 -3.9 28.9 -16 41 -7 7.1 -10.5 9.3 -58.3 36.8 -41.4 23.7 -51.5 29.2 -54.5 29.2 -3.6 0 -5.9 -2.2 -55.5 -51.8z"/>
 </g>
 <g fill="#5778c5">
  <path d="M187.3 583.8 c-1 -1.7 -1.6 -400.3 -0.5 -405.4 0.7 -3.5 1.1 -3.9 4.2 -4.2 3.2 -0.3 6.5 2.8 104.6 100.9 89.1 89.1 101.1 101.4 100.1 103 -0.9 1.4 -0.8 2.2 0.1 3.1 1 1 -19 21.5 -100 102.5 -92.1 92.1 -101.6 101.3 -104.5 101.3 -1.7 0 -3.5 -0.6 -4 -1.2z"/>
 </g>
 <g fill="#eb3131">
  <path d="M228 625 c-10.5 -2.5 -23.3 -10.8 -29.7 -19.2 -7.6 -9.9 -11.9 -21.5 -9.8 -26.5 0.6 -1.6 0.8 -1.5 1.6 0.7 0.9 2.3 6.7 -3.3 102.4 -99 95.5 -95.5 101.3 -101.5 99.8 -103.2 -1.5 -1.7 -1.4 -1.8 1.6 -1.8 2.9 0 3 0.2 1.9 2 -1.2 1.8 2.8 6.1 50.7 54 37.3 37.4 52.5 51.9 53.8 51.6 1.2 -0.3 1.7 0.2 1.7 1.8 0 1.8 -17.8 12.4 -113.8 67.8 -62.5 36 -115.6 66.5 -117.9 67.7 -7.5 3.7 -15 5.1 -27.3 5 -6.3 -0.1 -13.1 -0.5 -15 -0.9z"/>
 </g>
 <g fill="#3bad49">
  <path d="M292.3 277.8 c-95.5 -95.5 -101.3 -101.1 -102.2 -98.8 -0.8 2.2 -1 2.3 -1.6 0.7 -2.6 -6.4 3.9 -21.1 13.5 -30.7 11.4 -11.4 23.5 -16.2 41 -16.3 11.9 -0.1 19 1.3 27 5.2 3 1.5 56.2 32.1 118.3 68.1 97.3 56.5 112.7 65.7 112.7 67.7 0 1.4 -0.5 2.1 -1.2 1.8 -0.7 -0.3 -24.4 22.6 -53.3 51.5 -28.6 28.6 -52.2 52 -52.5 52 -0.3 0 -46 -45.5 -101.7 -101.2z"/>
 </g>
 <g fill="#100f0d">
  <path d="M85.7 742.9 c-18.9 -2.2 -36.5 -11.2 -49.3 -25.3 -9.3 -10.1 -15 -20.8 -19.1 -35.7 -1.7 -6 -1.8 -22.8 -1.8 -301.9 0 -335.6 -0.9 -302 8.8 -321.3 4.3 -8.8 6.4 -11.5 14.6 -19.8 8.3 -8.2 11 -10.3 19.8 -14.6 5.6 -2.8 13.7 -6 18 -7 7.5 -1.7 46.8 -1.8 1203.3 -1.8 1156.5 0 1195.8 0.1 1203.3 1.8 4.3 1 12.4 4.2 18 7 8.8 4.4 11.5 6.3 19.7 14.6 8.1 8.2 10.3 11.1 14.7 19.7 9.7 19.2 8.8 -14.5 8.8 321.4 0 279.1 -0.1 295.9 -1.8 301.9 -8.4 30.6 -28.3 50.8 -58.2 59.3 l-8 2.3 -1192 0.1 c-655.6 0.1 -1195.1 -0.2 -1198.8 -0.7z m1399.1 -98.5 c16.1 -3.3 30.8 -11.8 39.7 -23.1 5.9 -7.4 11.9 -19.6 14.7 -29.8 2.2 -7.9 2.3 -8.8 2.6 -91.2 l0.3 -83.3 -16.6 0 -16.5 0 0 7 0 7 -5.6 -4.5 c-11.4 -9.3 -23.3 -13.5 -38.6 -13.5 -43.5 0 -78.8 39.1 -76.5 84.4 0.7 13.5 2.5 20.3 8.2 32.1 15.2 31.1 49.3 49.4 80.5 43.1 10.3 -2.1 18.9 -6.2 25.7 -12.2 2.8 -2.4 5.5 -4.4 5.9 -4.4 1.1 0 -0.4 23 -1.9 28.6 -4.7 16.7 -16.7 27.2 -33.6 29.3 -18.8 2.4 -35.8 -6.1 -45.2 -22.5 l-3 -5.4 -3.2 1.3 c-21.5 8.9 -26.7 11.3 -26.7 12.2 0 1.8 5.2 10.9 9.5 16.5 11.3 14.7 26.7 24.7 43.9 28.5 8.6 1.9 27.1 1.8 36.4 -0.1z m852 -114.2 c26.5 -61 48.2 -111.4 48.2 -112 0 -1.6 -37.6 -1.7 -38.6 -0.1 -0.3 0.6 -9.5 23.7 -20.4 51.2 -17.1 43.4 -22 54.5 -22 49.8 0 -1.4 -40 -99.3 -41.3 -100.8 -0.7 -1 -5.8 -1.3 -19.4 -1.3 -17.4 0 -18.4 0.1 -17.9 1.8 0.4 1 14.3 33.1 31.1 71.2 16.8 38.1 30.5 70.1 30.5 71 0 0.9 -7.9 19.1 -17.5 40.4 -9.6 21.3 -17.5 38.9 -17.5 39.2 0 0.2 8.2 0.4 18.3 0.4 l18.3 0 48.2 -110.8z m-2079.5 91.3 c3.2 -0.8 8.1 -2.7 11 -4.1 2.8 -1.5 60.1 -34.4 127.2 -73.1 67.1 -38.8 140.9 -81.4 164 -94.6 38.9 -22.4 42.5 -24.7 49.5 -31.7 11.5 -11.4 16 -22.1 16 -38 0 -15.6 -5 -27.9 -15.6 -38.4 -5.1 -5.2 -13.1 -10.2 -52.5 -33 -25.5 -14.8 -99.5 -57.7 -164.4 -95.4 -64.9 -37.7 -120.9 -69.9 -124.5 -71.7 -8.5 -4.3 -14.7 -5.7 -24.8 -5.6 -25.3 0 -46.9 17.4 -52.7 42.4 -1.4 5.9 -1.5 29 -1.2 203.9 0.3 215.7 -0.2 199.1 5.7 210.9 7 13.8 21.4 25.4 36 28.9 5.8 1.3 20.2 1.1 26.3 -0.5z m665.2 -48.6 c28.3 -3.5 52.3 -15.2 70.7 -34.7 8 -8.5 11.8 -13.9 16.8 -24 8.8 -17.7 12.5 -36.3 11.8 -59.9 -0.2 -8.4 -0.8 -15.7 -1.4 -16.3 -0.7 -0.7 -20.5 -0.9 -58 -0.8 l-56.9 0.3 0 17 0 17 40.8 0.3 40.9 0.2 -0.7 4.3 c-3.4 19.8 -11.2 33.6 -25.3 44.9 -26.3 20.9 -65.1 24.4 -96.2 8.8 -24.2 -12.2 -41.9 -35.3 -47.4 -62.2 -3.1 -15.1 -1.8 -35.4 3.2 -49.8 10.7 -30.8 37.9 -53.9 69.4 -59 4.8 -0.8 12.7 -1.1 20.5 -0.8 11 0.4 14.2 1 22.5 3.8 11 3.6 22 9.7 29.1 16 l4.9 4.3 11.9 -11.9 c6.5 -6.5 11.9 -12.2 11.9 -12.6 0 -1.3 -15.9 -13.3 -23.6 -17.9 -15.9 -9.3 -31.2 -14.1 -51 -15.9 -23 -2.2 -47.6 2.7 -68.9 13.5 -21.7 11.1 -41.4 29.9 -53.3 51 -12.1 21.4 -17.9 48.7 -15.3 72.1 4.8 42.7 30.3 79.5 68.7 99.1 14.1 7.2 26.5 11 45.4 13.7 5.6 0.8 21.1 0.5 29.5 -0.5z m212.9 -1.4 c30.5 -8.1 51.6 -29.5 58.7 -59.3 1.8 -7.3 2 -10.9 1.7 -22.2 -0.4 -11.7 -0.9 -14.7 -3.6 -22.5 -7.3 -21.6 -20.8 -37.1 -40.7 -46.6 -12.8 -6.2 -18.8 -7.4 -36 -7.4 -17.6 0 -23.4 1.2 -37 7.9 -27.5 13.6 -43.5 39.7 -43.5 71.2 0 13.2 1.2 20.3 5.1 30.5 10.3 26.8 34.4 45.6 64.4 50.3 5.7 0.9 25 -0.3 30.9 -1.9z m178.6 -0.5 c37.1 -10.5 60.5 -43.1 58.7 -81.5 -1.8 -37.1 -25.8 -66.1 -61.7 -74.7 -7.1 -1.7 -10.8 -1.9 -22 -1.6 -11.8 0.4 -14.7 0.9 -22.9 3.7 -13.4 4.5 -22.2 10 -32.1 20 -6.7 6.8 -9.6 10.6 -13.3 17.8 -7 13.7 -9 21.9 -9.1 38.3 0 14.5 1.6 22.5 6.8 34.3 10.2 23 33.6 41 59.6 45.6 8.6 1.6 27.3 0.5 36 -1.9z m400 1.6 c10.5 -1.9 22.6 -6.8 30.7 -12.5 7 -4.9 21.3 -19.4 21.3 -21.5 0 -0.6 -6 -5 -13.3 -9.8 l-13.2 -8.8 -5.6 6.3 c-9.7 10.6 -21 15.7 -34.9 15.7 -12.2 0 -21.8 -3.9 -29.7 -11.9 -4.5 -4.6 -9.1 -11.6 -8.2 -12.5 0.2 -0.2 24 -10.1 52.9 -22.1 28.9 -11.9 52.9 -22 53.3 -22.4 1 -1 -5.1 -15.5 -10.4 -24.5 -6.4 -10.9 -19.4 -23.2 -29.9 -28.4 -12.3 -6 -19.8 -7.5 -35 -6.9 -13.8 0.5 -20.5 2.3 -32 8.3 -36.8 19.2 -51.3 69 -31.8 108.9 11.1 22.8 34.5 39.4 60.3 42.8 6.7 0.9 18.4 0.6 25.5 -0.7z m444 -1.3 c9.3 -2.5 16.7 -7.1 23.6 -14.7 l6.4 -7 0 9.7 0 9.7 17 0 17.1 0 -0.3 -52.7 -0.3 -52.8 -2.6 -7.7 c-7 -20.6 -23 -34.6 -46.4 -40.9 -10.6 -2.8 -31.6 -3.1 -42 -0.5 -12.4 3 -23 8.9 -31.6 17.5 -4.1 4.2 -8.5 9.6 -9.7 12.1 l-2.2 4.5 4.8 2.1 c2.6 1.1 9.6 4 15.6 6.5 l10.9 4.4 1.5 -2.5 c9.1 -14.2 31.4 -19 49.5 -10.7 10.2 4.7 17.2 13.6 18.4 23.6 l0.6 4.9 -8.9 -3.3 c-28.5 -10.7 -63.4 -4.5 -82.4 14.5 -9.9 9.9 -14 19.7 -14 33.5 0 17.8 8.1 32.2 23.8 42.3 13.6 8.8 35.1 12 51.2 7.5z m-556 -120.8 l0 -118.5 -17.5 0 -17.5 0 0 118.5 0 118.5 17.5 0 17.5 0 0 -118.5z m279 73.5 l0 -45 29 0 c22.6 0 30.8 -0.4 36.8 -1.6 27.9 -5.7 49.3 -24 57.9 -49.3 3.4 -10 4.2 -27 1.9 -38.1 -4.5 -21.6 -20.3 -40.6 -41.8 -50.4 -15.2 -7 -15 -7 -69.5 -7.4 l-49.3 -0.3 0 118.5 0 118.6 17.5 0 17.5 0 0 -45z m182 -73.5 l0 -118.5 -17.5 0 -17.5 0 0 118.5 0 118.5 17.5 0 17.5 0 0 -118.5z m-1198.5 -202.9 c16.2 -5.5 28 -17.3 34.2 -34 0.9 -2.4 1.8 -9.5 2.2 -16.9 l0.6 -12.7 -29.7 0 -29.8 0 0 8.5 0 8.5 20.5 0 20.5 0 -0.6 2.8 c-1.5 6.6 -5.9 14.4 -10.4 18.6 -8 7.5 -16.3 10.6 -28.6 10.6 -22.7 0 -40.1 -16.3 -42 -39.3 -1.6 -19.3 7.1 -35.4 23.4 -43.4 7.4 -3.7 7.9 -3.8 18.6 -3.8 10.3 0 11.6 0.2 17.6 3.1 3.6 1.7 8.2 4.8 10.3 7 l3.7 3.9 6.8 -6.8 6.7 -6.8 -4.8 -4.4 c-6.1 -5.6 -17.2 -11.1 -26.2 -13 -32.9 -6.9 -63.6 11.2 -73.1 43.1 -2.5 8.2 -2.5 25.8 0 33.8 6.6 22 23.6 38.3 44.8 43.1 9.8 2.3 25.4 1.4 35.3 -1.9z m503 1.9 c21 -4.4 39.5 -21.8 45.1 -42.5 2.8 -10.3 2.4 -27.4 -0.9 -37.3 -14.9 -45.4 -73.4 -56.3 -104.3 -19.5 -8.9 10.6 -13.4 24 -13.4 39.5 0 19.9 7 34.9 22.1 47.8 13.5 11.5 32.5 16 51.4 12z m-378.5 -10 l0 -8.5 -26 0 -26 0 0 -16.5 0 -16.5 23.5 0 23.5 0 0 -8.5 0 -8.5 -23.5 0 -23.5 0 0 -16.5 0 -16.5 26 0 26 0 0 -8.5 0 -8.5 -35.5 0 -35.5 0 0 58.5 0 58.5 35.5 0 35.5 0 0 -8.5z m61.2 -41.2 l0.3 -49.8 15.8 -0.3 15.7 -0.3 0 -8.4 0 -8.5 -41 0 -41 0 0 8.5 0 8.4 15.8 0.3 15.7 0.3 0.3 49.8 0.2 49.7 9 0 9 0 0.2 -49.7z m102.8 -8.8 l0 -58.5 -9 0 -9 0 0 58.5 0 58.5 9 0 9 0 0 -58.5z m65 8.5 l0 -50 16 0 16 0 0 -8.5 0 -8.5 -41 0 -41 0 0 8.5 0 8.4 15.8 0.3 15.7 0.3 0.3 49.8 0.2 49.7 9 0 9 0 0 -50z m231.8 6 l-0.3 -43.9 3.3 5.2 c1.8 2.9 14.1 22.6 27.4 44 l24.1 38.7 9.4 0 9.3 0 0 -58.5 0 -58.5 -9 0 -9 0 0 42.2 0 42.2 -26.2 -42.2 -26.3 -42.2 -10.7 0 -10.8 0 0 58.5 0 58.5 9.6 0 9.6 0 -0.4 -44z"/>
  <path d="M1457 540.6 c-14.6 -4.2 -25.8 -15.3 -31.1 -30.6 -2.9 -8.5 -3.1 -22.8 -0.5 -31.5 9.9 -33.4 48.4 -45.1 71.4 -21.8 9.5 9.6 14.2 21.9 14.2 36.8 0 20.1 -9.5 36.7 -25.5 44.6 -5.4 2.7 -7.8 3.2 -15.2 3.5 -5.4 0.2 -10.6 -0.2 -13.3 -1z"/>
  <path d="M1102.8 540.1 c-21.2 -6.8 -34.3 -27.4 -32.5 -50.9 1.5 -18.6 10.6 -32.7 26.1 -40.2 31.7 -15.4 66.8 10.6 64.3 47.5 -0.6 7.7 -2.8 15.9 -6.1 22.2 -2.4 4.8 -11.4 14.1 -16.3 17 -10.6 6.2 -24.4 7.9 -35.5 4.4z"/>
  <path d="M1280 540.4 c-7.3 -2 -13.5 -5.7 -19.5 -11.9 -9.3 -9.5 -13.5 -20.5 -13.5 -35.5 0 -21.6 11.4 -38.8 30.5 -46 11.5 -4.3 27.4 -2.5 38.1 4.3 21.1 13.4 28 42.9 15.7 67.1 -3 5.9 -11 14.2 -17.3 17.9 -9.3 5.4 -22.9 7.1 -34 4.1z"/>
  <path d="M1655.2 483 c1.1 -14.5 11.2 -28.5 25.5 -35.3 6.2 -2.9 7.7 -3.2 16.3 -3.2 8.8 0 10.1 0.3 16.2 3.3 6.8 3.3 13.1 9.4 12.6 12.1 -0.3 1.3 -67.5 30.1 -70.1 30.1 -0.6 0 -0.8 -3 -0.5 -7z"/>
  <path d="M2135.5 540.6 c-9.1 -2.9 -15.7 -8.5 -17 -14.6 -1 -4.6 0.3 -11.3 2.8 -15.1 3.2 -4.7 9.9 -9.6 16 -11.5 6.9 -2.2 24.1 -3 32 -1.4 4.9 0.9 16.3 5 18.6 6.6 1.1 0.9 -4.5 14.9 -7.9 19.7 -9.9 13.8 -29.6 21 -44.5 16.3z"/>
  <path d="M1881 405.5 l0 -40.6 30.3 0.3 c28.8 0.3 30.5 0.4 36 2.7 14 5.6 25.7 22.7 25.7 37.6 0 14.9 -11.7 32 -25.7 37.7 -5.6 2.2 -7.1 2.3 -36 2.6 l-30.3 0.3 0 -40.6z"/>
  <path d="M1340.9 231.2 c-10.9 -3.7 -19 -11 -24.3 -22.2 -3 -6.2 -3.1 -7 -3.1 -19.5 0 -12.5 0.1 -13.2 3.2 -19.7 4.1 -8.8 11.3 -16 20.1 -20.1 6.3 -3 7.4 -3.2 17.7 -3.2 10.4 0 11.4 0.2 17.6 3.3 11.5 5.5 20.1 16.6 22.8 29 2.2 10.3 1 22.2 -3.2 31.1 -3.2 6.9 -12 15.6 -19.3 19.2 -5.7 2.8 -7.7 3.3 -16.2 3.6 -7.5 0.2 -11 -0.1 -15.3 -1.5z"/>
 </g>
</svg>