<?xml version="1.0" encoding="utf-8"?>
<!DOCTYPE svg PUBLIC "-//W3C//DTD SVG 1.0//EN" "http://www.w3.org/TR/2001/REC-SVG-20010904/DTD/svg10.dtd">
<svg version="1.0" xmlns="http://www.w3.org/2000/svg" width="2560px" height="759px" viewBox="0 0 2560 759" preserveAspectRatio="xMidYMid meet">
 <g fill="#000000">
  <path d="M73.8 743.4 c-27.5 -5 -48.2 -23.6 -57 -51.4 l-2.3 -7.5 0 -304.5 c0 -251.8 0.2 -305.5 1.3 -310 2 -7.8 9.3 -22.5 14.7 -29.2 8.4 -10.6 21.7 -19.3 36.5 -24 l7.5 -2.3 1204.5 0 c1143.3 0 1204.8 0.1 1211 1.7 12.5 3.4 22.6 9.4 32.6 19.3 10.3 10.3 16.1 20.1 19.4 33.1 2 7.6 2 12.6 2 310.9 0 298.3 0 303.3 -2 310.9 -3.1 12.2 -9.2 22.8 -18.5 32.2 -12.1 12.2 -25.5 19 -41.9 21.3 -5.5 0.8 -357.1 1.1 -1203.9 1 -1017.3 -0.1 -1197.4 -0.3 -1203.9 -1.5z m1016.2 -122.4 l0 -48 3.5 0 c1.9 0 3.5 0.4 3.5 1 0 0.5 3 4.1 6.6 8 21 22.2 58.8 22.6 86.1 0.9 13.6 -10.8 24.8 -28.8 30 -48.4 2.4 -9.1 2.7 -11.7 2.7 -29 0.1 -16.5 -0.2 -20.2 -2.2 -27.8 -4.6 -18.4 -12.1 -31.6 -24.9 -43.8 -9.1 -8.6 -18.7 -14.1 -29.9 -16.9 -24.8 -6.4 -53.8 3.8 -68.5 24 -3.7 5.2 -4.8 6 -7.5 6 -3.2 0 -3.2 0 -3.8 -6.2 -0.3 -3.5 -0.9 -9.9 -1.3 -14.3 l-0.8 -8 -14.9 -0.3 -14.9 -0.3 0.6 12.2 c0.4 6.7 0.7 63.2 0.7 125.6 l0 113.3 17.5 0 17.5 0 0 -48z m209 0.5 l0 -47.5 3.8 0 c3.1 0 4.1 0.5 5.3 2.6 2.3 4.4 12.6 13.2 19.2 16.3 26.1 12.4 58.8 5.1 80.2 -18.1 10.4 -11.2 16.8 -23.1 21 -39.1 13.8 -52.1 -8.2 -104 -50 -117.9 -5.9 -1.9 -8.9 -2.3 -19.5 -2.2 -10.8 0 -13.6 0.4 -20.5 2.7 -4.4 1.5 -10.3 4 -13.2 5.7 -6.3 3.6 -16.4 12.9 -20.4 18.7 -2.5 3.6 -3.5 4.3 -6.3 4.3 l-3.3 0 -0.7 -9.2 c-0.4 -5.1 -0.9 -11.7 -1.2 -14.6 l-0.6 -5.3 -14.7 0.3 -14.6 0.3 0.1 3.3 c0 1.7 0.1 58.1 0.2 125.2 l0.2 122 17.5 0 17.5 0 0 -47.5z m-910.2 -26.8 c5.3 -1.9 14.6 -5.3 20.6 -7.6 14.4 -5.6 22.8 -7.1 39.9 -7.1 17.5 0 25.1 1.7 45.6 9.9 16.9 6.8 22.3 8.1 32.9 8.1 18.2 -0.1 35.5 -10.8 53.4 -33.3 19 -23.8 38.3 -56.5 46.9 -79.1 l3.7 -10 -7.1 -3.9 c-20.4 -11 -37.8 -29.4 -46.8 -49.3 -1.7 -3.8 -4.3 -11.2 -5.7 -16.4 -2.6 -9 -2.7 -10.6 -2.6 -31.5 0 -21.1 0.1 -22.4 2.8 -31 3.7 -12.3 9.4 -23.7 16.4 -33.1 5.8 -7.7 17.7 -19.8 25.6 -26 l4 -3 -9.5 -9.6 c-10.2 -10.3 -17.2 -15.5 -29.6 -21.7 -17.4 -8.8 -35.5 -12.7 -54.7 -11.8 -14.5 0.6 -23.6 3 -47.3 12.3 -20.2 7.8 -26 9.4 -35.5 9.4 -8.8 0 -12.8 -1.1 -34.8 -9.5 -34.1 -13.1 -48 -14.3 -72.9 -6.3 -18.9 6 -33 14.7 -47.7 29.3 -24 23.8 -37 54.2 -40.4 94.3 -3.9 45.3 13.9 111.3 42.7 158.5 23 37.9 47.1 63.1 67.1 70.4 9.3 3.3 19.5 2.7 33 -2z m1202.2 3.3 c13.4 -1.4 26.7 -5.2 37.3 -10.7 12.4 -6.3 25.5 -19.1 30.9 -30.3 5 -10.3 7.1 -18.8 7.1 -29.5 0.2 -32.1 -19.6 -54.4 -64.8 -73 -35.5 -14.7 -46.6 -25.6 -46.5 -45.9 0.1 -12.8 4.7 -22.6 13.6 -28.5 8.7 -5.7 16.9 -7.6 33.4 -7.6 16.5 0 26 1.5 37.4 5.6 4.4 1.6 8 2.8 8.2 2.6 0.4 -0.5 7.4 -23.4 7.4 -24.4 0 -1.5 -13.5 -6.6 -22.5 -8.6 -51.9 -11.7 -97.5 8.4 -109.6 48.3 -8.9 29.4 8.1 59.3 44.1 77.5 3 1.5 12.4 5.6 20.8 9.1 24.6 10.1 35.3 17.9 41 30.2 2.4 5.1 2.7 6.8 2.6 17.2 0 14.1 -2 20.3 -9.1 27.4 -8.4 8.6 -19 12.4 -36.4 13.3 -19.3 1 -38.6 -2.5 -54.6 -9.7 -3.6 -1.7 -6.8 -2.9 -7 -2.7 -0.2 0.2 -1.7 5.3 -3.3 11.3 -1.7 6 -3.3 11.7 -3.6 12.6 -0.9 3 15.7 10.3 30.1 13.2 16.8 3.4 28.8 4.1 43.5 2.6z m190 0 c4.1 -0.5 9.7 -1.5 12.3 -2.1 l4.8 -1.1 -0.3 -12.2 -0.3 -12.1 -10 0.3 c-12.9 0.5 -18.7 -1 -23.5 -5.8 -7.5 -7.5 -7.4 -6.9 -7.8 -67.7 l-0.3 -54.3 22.1 0 22 0 0 -12.5 0 -12.5 -22 0 -22 0 0 -21.5 c0 -11.8 -0.2 -21.5 -0.4 -21.5 -0.4 0 -4.6 1.3 -23.3 7 l-10.3 3.1 0 16.4 0 16.5 -13.5 0 -13.5 0 0 12.5 0 12.5 13.4 0 13.5 0 0.3 56.8 c0.4 55.6 0.4 56.8 2.7 64.2 3.1 10.3 6.5 16.1 12.8 22.1 6 5.7 13.3 9.4 22.5 11.4 7.7 1.6 11.1 1.7 20.8 0.5z m148.5 -0.5 c42.8 -7.5 71.5 -44.5 71.5 -92.4 0 -27.9 -9.5 -51 -28.1 -68.5 -10.5 -9.9 -23.8 -16.7 -38.5 -19.8 -24.1 -5 -52.5 1.1 -69.9 14.9 -24.4 19.3 -36.8 47.9 -35.2 81.2 2.6 56.5 46.9 93.9 100.2 84.6z m339.8 -1 c16 -2.4 32.7 -7.4 32.7 -9.8 0 -0.7 -1 -5.4 -2.1 -10.5 -2 -8.6 -2.4 -9.3 -4.3 -8.9 -16.9 4.1 -22.3 4.9 -38.1 5.4 -19.8 0.6 -27.6 -0.6 -39.2 -6.2 -16.8 -7.9 -27.2 -25.8 -27.3 -46.7 l0 -5.8 60.5 0 60.5 0 0.4 -2.2 c2.3 -11 1 -28.7 -2.9 -42.4 -10.9 -37.5 -41 -58.6 -77.5 -54.2 -17.6 2 -31.7 8.6 -44.2 20.6 -19.6 18.8 -30 44.3 -29.9 73.6 0.2 43.3 23.7 75.9 61.7 85.5 4.3 1.1 9.3 2.2 10.9 2.4 7.3 1 29.9 0.6 38.8 -0.8z m-1414.7 -38.3 l11 -36.7 44 -0.3 43.9 -0.2 11.4 35.9 c6.3 19.8 11.7 36.5 12.1 37.1 0.4 0.7 6.3 1 18.1 0.8 l17.4 -0.3 -32 -99 c-17.6 -54.5 -35.5 -109.9 -39.8 -123.3 l-7.9 -24.2 -22.4 0 c-12.3 0 -22.4 0.2 -22.4 0.4 0 0.2 -17.5 54.8 -38.9 121.3 -21.3 66.4 -39.2 121.8 -39.5 123.1 l-0.7 2.2 17.3 0 17.3 0 11.1 -36.8z m1222.6 -17.9 c0.3 -49.8 0.5 -55.3 2.2 -60.3 4.8 -14.4 12.3 -24.1 22 -28.6 6.3 -2.9 19 -4.7 26.4 -3.8 l5.3 0.6 -0.3 -16.3 -0.3 -16.4 -8.3 0.1 c-7.6 0.1 -9 0.5 -16.6 4.2 -10.6 5.3 -19.7 14.5 -25.2 25.6 -3.5 7.1 -3.9 7.6 -6.9 7.6 l-3.2 0 -0.9 -17.2 -0.9 -17.3 -14.5 0 c-14.4 0 -14.5 0 -14.4 2.3 0 1.2 0.1 40.9 0.2 88.2 l0.2 86 17.4 0 17.5 0 0.3 -54.7z m-1066.5 -289.1 c25.4 -9.7 35.5 -43.7 19.9 -66.8 -13.9 -20.5 -41.6 -23.6 -59.7 -6.8 -17.8 16.8 -18.8 45.7 -2.2 63.5 5.5 5.9 9.6 8.6 17.1 11 7 2.4 17.4 2 24.9 -0.9z m419.7 1.3 c18.4 -4.8 31.6 -22.8 31.6 -43 0 -25.9 -21.7 -46 -45.7 -42.3 -23.1 3.5 -39.8 28.2 -34.9 51.5 5.2 25.2 26.3 39.7 49 33.8z m97.2 -1.8 c2.7 -1.4 6.2 -3.9 7.8 -5.6 2.1 -2.2 3.9 -3.1 6.2 -3.1 3 0 3.2 0.2 3.8 5 l0.7 5 5.7 0 5.7 0 -0.2 -15.5 c-0.8 -49 -0.6 -45.5 -3.6 -52 -3.4 -7.3 -6.7 -10.9 -12.9 -14.1 -10.2 -5.2 -24.4 -4.9 -38 0.8 -4.5 1.9 -4.6 2.1 -3.6 4.8 l0.9 2.9 4.2 -1.7 c3 -1.1 7.7 -1.6 16.4 -1.6 10.8 -0.1 12.5 0.1 14.9 2 5.3 3.9 6.7 6.8 7.2 14.8 l0.5 7.6 -6.1 0 c-13.3 0 -29.3 4.9 -37 11.4 -4.8 4.1 -8.2 10.7 -8.9 17 -0.5 4.7 -0.2 6.4 2.1 11 6.5 13.2 21 18 34.2 11.3z m106.8 1.9 c6 -1.8 11.8 -5.8 14.8 -10.2 1.8 -2.6 3 -3.4 5.4 -3.4 3.7 0 4.4 1.2 4.4 8.1 l0 4.9 6 0 6 0 0 -62.5 0 -62.5 -7.5 0 -7.5 0 0 25 0 25 -3.3 0 c-2.4 0 -4.1 -0.8 -6.2 -3 -10.8 -11.2 -29.6 -9.2 -42.6 4.7 -18.3 19.6 -14.7 57.4 6.8 69.9 9.3 5.5 15.3 6.5 23.7 4z m179.9 -1.6 c7.1 -2.7 17.1 -11.6 21 -18.8 9.6 -17.7 6.8 -40.2 -6.7 -53.8 -15.4 -15.3 -39 -15.5 -55 -0.4 -10.2 9.7 -15.7 25.3 -13.6 38.8 2.8 17.4 15.6 32.2 31.3 36.3 5.1 1.3 16.7 0.3 23 -2.1z m262.3 1.9 c4.3 -1.1 4.4 -1.2 4.4 -5.4 l0 -4.3 -7.6 -0.4 c-12.7 -0.6 -13.4 -2.5 -13.4 -38.5 l0 -26.3 11 0 11 0 0 -5 0 -5 -11 0 -11 0 0 -10 c0 -5.5 -0.3 -10 -0.7 -10 -0.5 0 -3.5 0.9 -6.8 1.9 l-6 1.9 -0.3 8.1 -0.3 8.1 -6.4 0 -6.5 0 0 5 0 5 6.4 0 6.5 0 0.3 28.3 c0.5 31.8 1 34.5 7.6 41 6.2 6 13.7 7.9 22.8 5.6z m198.6 -0.4 c4.6 -0.8 9.8 -2 11.4 -2.7 2.8 -1.2 3 -1.5 2.2 -4.7 -0.8 -2.8 -1.2 -3.2 -3.1 -2.6 -4.2 1.3 -27.1 1.8 -31.2 0.6 -11.4 -3 -17.7 -11.2 -19.1 -24.3 l-0.6 -6.8 30 0 30 0 0.5 -2.9 c0.8 -3.9 -0.9 -13.9 -3.5 -20.9 -3 -7.9 -12.2 -17.2 -19.8 -19.7 -20.4 -7 -42.2 7 -48.5 31 -6.3 24.3 7.4 47.9 30.8 53 8.2 1.8 10.8 1.8 20.9 0z m-1400.8 -1 c25.7 -4.5 41.6 -17.2 49.3 -39.2 2.4 -7 2.7 -9.3 2.8 -21.3 0 -11.5 -0.3 -14.5 -2.3 -20 -3.1 -9.1 -6.8 -15.1 -13 -21.4 -6.4 -6.5 -14 -10.7 -24.7 -13.8 -7 -2 -10.2 -2.3 -26 -2.3 -9.9 0 -20.6 0.4 -23.7 0.8 l-5.8 0.8 0 58.4 0 58.4 3.8 0.4 c9.9 1 31.6 0.6 39.6 -0.8z m235.9 -23.7 c4.2 -13.4 8.5 -27.9 9.5 -32.3 1.9 -8 1.9 -8 5.4 -8.3 l3.4 -0.3 1.7 7.8 c0.9 4.3 5 18.8 9 32.3 l7.3 24.5 6.5 0.3 6.4 0.3 6.8 -21.8 c3.7 -12 9.6 -30.9 13.1 -42.1 l6.4 -20.3 -6.2 0.3 -6.1 0.3 -2.3 8.5 c-5.8 22 -12.2 48.2 -13.4 54.8 -1.2 7.1 -1.2 7.2 -4.3 7.2 l-3.1 0 -2.2 -9.9 c-1.3 -5.4 -5.6 -21.3 -9.6 -35.2 l-7.3 -25.4 -5.4 0 -5.4 0 -7.7 25.5 c-4.2 14 -8.7 29.9 -10 35.2 -2.3 9.8 -2.3 9.8 -5.4 9.8 -3 0 -3.1 -0.1 -4.3 -6.7 -0.7 -3.8 -4.2 -19.6 -7.9 -35.3 l-6.7 -28.5 -6.9 -0.3 c-5.6 -0.2 -6.8 0 -6.3 1.1 0.3 0.8 5.8 19.4 12.3 41.3 6.4 22 11.8 40.2 12.1 40.7 0.2 0.4 3.2 0.7 6.7 0.7 l6.3 0 7.6 -24.2z m122.7 -5.1 l0 -29.3 2.6 -5.3 c3.3 -6.6 8.2 -10 15.7 -10.8 8.4 -0.9 14.3 0.4 18.2 3.9 5.9 5.1 6.5 9.1 6.5 42 l0 28.9 7.3 -0.3 7.2 -0.3 0.3 -21 c0.3 -26.5 -0.8 -38.6 -4.3 -46.3 -4.2 -9.2 -11.1 -15 -20.4 -17.1 -8.1 -1.8 -19.1 2.6 -25.9 10.3 -2.5 2.9 -3.9 3.6 -6.7 3.6 l-3.5 0 0 -6.5 0 -6.5 -6 0 -6 0 0 42 0 42 7.5 0 7.5 0 0 -29.3z m112 -33.2 l0 -62.5 -7 0 -7 0 0 62.5 0 62.5 7 0 7 0 0 -62.5z m546 31.3 l0.5 -30.6 3 -4.3 c4.7 -6.7 8.5 -8.4 18.5 -8.4 10.7 0 14.4 1.9 18 9 2.5 5 2.5 5.3 2.8 35.3 l0.3 30.2 7 0 7 0 -0.3 -30.2 c-0.3 -28.7 -0.4 -30.6 -2.6 -35.9 -3 -7.5 -8.1 -13.2 -14.7 -16.4 -10.5 -5.2 -21.1 -2.9 -30.9 6.6 -4.4 4.4 -6.8 5.9 -8.8 5.9 -2.7 0 -2.8 -0.2 -2.8 -5.4 0 -8.1 -0.4 -8.6 -6.6 -8.6 l-5.4 0 0 42 0 42.1 7.3 -0.3 7.2 -0.3 0.5 -30.7z m238.2 1.5 c0.4 -32.8 0.6 -33.9 6.8 -40 4 -3.9 11 -5.8 19.1 -5 7.9 0.7 11.8 3.1 14.9 9.2 2.5 5 2.5 5.3 2.8 35.3 l0.4 30.2 6.9 0 7 0 -0.3 -30.2 c-0.3 -28.6 -0.5 -30.6 -2.6 -35.9 -4.6 -11.4 -14.8 -19.1 -25.3 -19.1 -6.8 0.1 -14.6 4 -19.7 9.8 -3.1 3.4 -4.6 4.4 -7.1 4.4 l-3.1 0 0 -27 0 -27 -7 0 -7 0 0 62.5 0 62.5 6.9 0 6.9 0 0.4 -29.7z m-1664.9 0.2 c24.1 -8.1 44.7 -26.6 57.2 -51.5 7.1 -14.1 11.5 -30.8 11.5 -43.6 l0 -6.4 -2.7 0.6 c-23.1 5.1 -40.8 14.3 -57 29.7 -14.1 13.4 -26.4 35.6 -30.4 55.2 -1.9 9.3 -2.5 18.6 -1.2 19.9 1.4 1.4 12.8 -0.6 22.6 -3.9z"/>
  <path d="M1123.2 571.5 c-3.5 -0.8 -8.2 -2.5 -10.5 -3.9 -6 -3.5 -13.1 -11 -16.7 -17.7 -4.9 -9.3 -6 -16.5 -6 -41.4 0 -24.5 1.5 -34.1 6.8 -43.9 3.8 -7.1 12 -14.9 19.4 -18.5 12.3 -6 31.3 -6.2 43.6 -0.5 20.4 9.7 31.3 39.4 27.3 74.3 -3.5 30 -16.8 48 -38.5 52 -7.8 1.4 -17.6 1.3 -25.4 -0.4z"/>
  <path d="M1333 571.6 c-10.8 -2.4 -19.5 -8.7 -26 -18.8 -6.6 -10.1 -7.4 -14.9 -7.5 -43.8 0 -27.7 0.7 -32.5 6.2 -43.4 3.7 -7.2 12.3 -15.8 19.6 -19.5 12.4 -6.2 31.8 -6.3 44.4 -0.1 11.5 5.7 21.2 19.5 25 35.7 2.7 11.6 2.4 40.8 -0.5 51.6 -4.3 15.9 -13.7 29.3 -24.1 34.6 -9.1 4.7 -25.4 6.3 -37.1 3.7z"/>
  <path d="M1901.6 573.9 c-6.6 -1.6 -15.5 -7 -20.2 -12.3 -5.3 -6 -11.7 -18.5 -14.1 -27.6 -2.6 -9.4 -2.6 -44.6 0 -54 5 -18.3 16.1 -33.3 28.2 -38 8.3 -3.2 25 -4 34.1 -1.5 15 4.1 26.9 18.4 32.6 39.4 3 10.6 3.2 41 0.4 51.6 -5.9 22.3 -18.5 37.9 -34.1 42 -6.4 1.6 -20.6 1.9 -26.9 0.4z"/>
  <path d="M2191 485.7 c0 -5.7 2.4 -14.8 5.9 -22.2 6.2 -13.3 17.2 -23 29 -25.5 9.5 -2 24.4 -0.9 31.3 2.2 14 6.5 21.8 20.1 23.4 40.9 l0.7 8.9 -45.2 0 -45.1 0 0 -4.3z"/>
  <path d="M873 492.3 c0 -1.4 4.8 -17.8 10.7 -36.2 5.8 -18.5 13.2 -43.7 16.3 -56.1 l5.6 -22.5 3.5 -0.3 3.4 -0.3 4.9 19.3 c2.7 10.6 10.2 35.7 16.7 55.9 6.6 20.2 11.9 38.1 11.9 39.8 l0 3.1 -36.5 0 -36.5 0 0 -2.7z"/>
  <path d="M985.3 242.9 c-8.2 -4 -13.1 -13.9 -14 -27.9 -1.8 -27.9 10.2 -42.8 31.5 -39.2 8.3 1.4 12.2 4.5 16.4 12.9 3.1 6.3 3.3 7.5 3.7 18.9 0.4 14.1 -1 20.3 -6.1 28 -4.6 6.9 -10 9.4 -19.8 9.4 -5.6 0 -8.6 -0.5 -11.7 -2.1z"/>
  <path d="M1408.9 242.7 c-4.9 -2.6 -10.2 -9.5 -12.1 -16 -0.7 -2.4 -1.3 -9.6 -1.3 -16.7 0 -14.6 1.5 -20.3 7.1 -26.9 5.3 -6.2 8.5 -7.5 18.4 -7.5 7.2 -0.1 9.1 0.3 12.7 2.3 8.7 5 13.3 16 13.3 32.1 0 16.5 -5.2 28.5 -14.3 32.9 -6.3 3 -17.8 2.9 -23.8 -0.2z"/>
  <path d="M1512.5 244.1 c-1.1 -0.5 -3.1 -2.1 -4.5 -3.6 -2.2 -2.3 -2.5 -3.7 -2.8 -10.8 -0.4 -10.8 1.3 -14.1 9.2 -18.1 5.2 -2.7 7.1 -3 17.2 -3.4 l11.4 -0.5 0 11.9 c0 14 -1.2 17.2 -7.8 21.9 -3.9 2.7 -5.3 3 -12.5 3.2 -4.5 0.2 -9.1 -0.1 -10.2 -0.6z"/>
  <path d="M1624.3 243.1 c-8.6 -2.2 -15.3 -9.8 -17.4 -19.8 -0.6 -3.4 -1 -10.2 -0.7 -16.4 0.4 -9.6 0.8 -11.4 3.7 -17.4 4 -8.2 9.3 -12 18 -13.1 11.8 -1.5 21.1 2.7 25.9 11.7 2.2 4.2 2.3 5.1 2 22.5 l-0.3 18.1 -3 4.9 c-4.1 6.5 -9.3 9.4 -18.2 9.9 -3.7 0.2 -8.2 0.1 -10 -0.4z"/>
  <path d="M1788.1 242.9 c-5.1 -2.6 -9.3 -8 -11.8 -15.2 -1.4 -3.9 -1.8 -8.2 -1.8 -17.7 0 -14.4 1.7 -20.5 7.3 -27.1 5.1 -5.9 8.4 -7.3 18.2 -7.3 11 -0.1 16 2.4 20.7 10.3 4.3 7.2 5.6 14.3 5.1 27.8 -0.4 10.4 -0.7 11.7 -3.9 18 -2.4 4.8 -4.7 7.6 -7.7 9.8 -3.9 2.7 -5.2 3 -13 3.3 -7.4 0.3 -9.4 0 -13.1 -1.9z"/>
  <path d="M2236 198.2 c0 -10.3 7.4 -21.3 15.5 -22.8 1.9 -0.3 7 -0.5 11.4 -0.3 9.3 0.5 12.2 2.1 16 8.9 1.8 3.3 2.6 6.4 2.9 12.2 l0.5 7.8 -23.2 0 -23.1 0 0 -5.8z"/>
  <path d="M846.3 242.3 c-1 -0.4 -1.3 -11.2 -1.3 -49.3 l0 -48.7 3.1 -0.7 c6.2 -1.2 26.9 -0.6 34 1 15.9 3.6 25.8 14.9 29 32.9 1.4 8.2 0.6 26.6 -1.4 34 -4.5 16.2 -15.5 26.4 -32.2 30 -6.6 1.4 -28.4 2 -31.2 0.8z"/>
 </g>
 <g fill="#ffffff">
  <path d="M81.5 758 c-11.1 -1 -19.5 -3.4 -30 -8.5 -24.7 -11.9 -41.8 -33 -48.8 -60.2 l-2.2 -8.8 0 -301 0 -301 2.3 -9 c8.2 -32.7 33.3 -57.9 66.2 -66.7 l8.5 -2.3 1193 -0.3 c818.8 -0.2 1196.7 0.1 1204.7 0.8 12.7 1.1 24.3 4.2 34.3 9.3 24.8 12.4 43.6 37.2 48.7 64.4 1 5.5 1.3 66 1.3 305.8 0 276 -0.1 299.5 -1.7 306.1 -7.5 32.3 -31.3 58.1 -62.5 67.8 -4.6 1.4 -13.1 3 -19 3.6 -12.6 1.2 -2381.8 1.2 -2394.8 0z m2397.1 -17.1 c16.4 -2.3 29.8 -9.1 41.9 -21.3 9.3 -9.4 15.4 -20 18.5 -32.2 2 -7.6 2 -12.6 2 -307.9 0 -295.3 0 -300.3 -2 -307.9 -3.3 -13 -9.1 -22.8 -19.4 -33.1 -10 -9.9 -20.1 -15.9 -32.6 -19.3 -6.2 -1.6 -67.6 -1.7 -1208 -1.7 l-1201.5 0 -7.5 2.3 c-14.8 4.7 -28.1 13.4 -36.5 24 -5.4 6.7 -12.7 21.4 -14.7 29.2 -1.1 4.5 -1.3 57.7 -1.3 307 l0 301.5 2.3 7.5 c8.8 27.8 29.5 46.4 57 51.4 6.5 1.2 186.2 1.4 1200.9 1.5 844.6 0.1 1195.4 -0.2 1200.9 -1z"/>
  <path d="M1052 560.2 c0 -61.6 -0.3 -119.4 -0.7 -128.6 l-0.6 -16.6 17.9 0.2 17.9 0.3 0.8 9 c0.4 5 1.1 11.4 1.5 14.3 l0.7 5.3 4.4 -6 c18.6 -25.6 59.5 -34 89.4 -18.4 13.7 7.2 27.9 23.3 34.7 39.1 6.3 14.9 7.5 22.3 7.4 46.7 0 20.6 -0.2 22.6 -2.7 32 -6.9 26 -22.6 46.6 -43.2 56.8 -10.1 5 -17.4 6.8 -31 7.4 -24.1 1 -40.9 -6.1 -52.7 -22.1 l-2.8 -3.9 0 48.1 0 48.2 -20.5 0 -20.5 0 0 -111.8z m93.6 8.7 c21.5 -4 34.9 -21.9 38.4 -51.5 3.7 -31 -7.6 -59.5 -27.3 -68.8 -16 -7.5 -36.4 -3.9 -49 8.8 -11.4 11.4 -14.7 22.9 -14.7 51.1 0 27.7 2.9 37.9 13.8 48.9 6.2 6.3 11.6 9.4 19.4 11.1 7.9 1.7 11.9 1.8 19.4 0.4z"/>
  <path d="M1260.8 550 c-0.1 -67.1 -0.2 -124.8 -0.3 -128.2 l0 -6.3 17.7 -0.3 17.6 -0.2 0.6 6.2 c0.3 3.5 0.9 10.1 1.4 14.8 l0.7 8.5 3.2 -4.6 c4.2 -6 14.2 -15.2 20.6 -18.9 2.9 -1.7 8.8 -4.2 13.2 -5.7 7.3 -2.4 9.4 -2.7 23.5 -2.7 13.7 -0.1 16.3 0.2 22.5 2.2 36.8 12.3 58.1 52.8 53.6 102.1 -2.9 32.4 -15.2 56.4 -36.8 71.8 -20.4 14.5 -52.1 17.6 -74 7.2 -6.6 -3.1 -16.9 -11.9 -19.2 -16.3 -0.8 -1.4 -1.8 -2.6 -2.3 -2.6 -0.4 0 -0.8 21.4 -0.8 47.5 l0 47.5 -20.5 0 -20.5 0 -0.2 -122z m95.3 18.6 c9.1 -2 14.4 -4.9 20.9 -11.5 6.3 -6.6 11.1 -15.7 14.2 -26.8 3.1 -11.4 3.1 -36.4 0 -47.6 -7.4 -26.8 -26.2 -40.8 -50.5 -37.5 -12.5 1.6 -26 11.5 -32 23.4 -5.4 10.6 -6.2 16 -6.1 40.4 0 25.6 1 31 7.4 40.8 10.4 16.1 26.9 22.8 46.1 18.8z"/>
  <path d="M352.8 599.7 c-17 -6.2 -33.7 -21.9 -54.8 -51.6 -31.9 -45 -51 -98.1 -55.1 -152.8 -3 -40.3 5.9 -78.2 25.4 -107.3 6.3 -9.5 23 -26.1 32.2 -32.2 21.5 -14 45.1 -20.8 67.5 -19.5 11.9 0.7 21.1 3.2 42 11.2 32.6 12.5 32.6 12.5 64.2 0.1 26.6 -10.4 36.4 -12.7 54.5 -12.7 36.7 0 69.6 15.2 90.6 41.9 l4.7 6 -6.8 5.1 c-3.8 2.7 -10.6 9 -15.3 13.8 -13.6 14.1 -20.9 26.6 -26.6 45 -2.5 8.2 -2.7 10.1 -2.7 27.8 -0.1 17.6 0.1 19.7 2.6 28.5 8.1 29 26.2 51.5 53.1 66 9.1 4.9 8.8 3.4 3 19 -11.2 30 -42 77.9 -61.6 95.5 -13.7 12.4 -26.2 17.7 -41.7 17.7 -12.7 0.1 -18.8 -1.3 -36.1 -8.3 -19.4 -7.8 -28.4 -9.9 -42.6 -9.9 -14 0 -23.2 1.7 -36.9 7.1 -26.3 10.1 -30.1 11.2 -41.9 11.6 -9.8 0.3 -11.8 0.1 -17.7 -2z"/>
  <path d="M1560 600.9 c-10.9 -1.3 -22.6 -3.8 -29.5 -6.4 -8.3 -3.1 -16.5 -7.3 -17.1 -8.8 -0.4 -1.1 7.8 -32.2 8.8 -33.2 0.2 -0.3 3.3 1.1 6.9 3 20.7 11 52.6 15.5 70.9 9.9 13.1 -3.9 22.3 -11.4 26.2 -21.3 3.3 -8.4 3.1 -20.7 -0.4 -28.3 -5.6 -12.2 -16.3 -20.1 -41 -30.2 -25.3 -10.4 -35.7 -16.5 -47 -27.4 -8.5 -8.2 -13.9 -16.5 -17.4 -26.7 -3.8 -11 -4 -27.2 -0.5 -38.5 11.1 -36.1 47.9 -55.6 96.6 -51.1 14.4 1.4 26 4 36.1 8.2 4.1 1.7 7.4 3.2 7.4 3.4 0 0.1 -2.2 7.6 -5 16.5 -2.7 8.9 -5 16.4 -5 16.5 0 0.2 -3.5 -1.2 -7.7 -3.1 -9.9 -4.2 -16.6 -5.9 -29 -7.4 -30 -3.6 -51.1 6.9 -54.6 27.3 -2.1 12.4 3.2 24 14.6 32.1 7 5 18 10.6 31.2 16.1 38 15.6 56.6 32.6 63.2 57.5 2.3 8.8 2.3 28.1 -0.1 37 -3.3 12.3 -8.2 20.7 -18.1 30.6 -7.3 7.4 -10.7 9.9 -18.2 13.7 -19 9.7 -45.1 13.6 -71.3 10.6z"/>
  <path d="M1757.2 600.5 c-9.3 -2.1 -16.5 -5.8 -22.5 -11.4 -6.3 -6 -9.7 -11.8 -12.8 -22.1 -2.3 -7.4 -2.3 -8.6 -2.7 -64.2 l-0.3 -56.8 -13.5 0 -13.4 0 0 -15.5 0 -15.5 13.5 0 13.5 0 0 -16.5 0 -16.4 9.8 -3 c5.3 -1.6 13.8 -4.2 18.7 -5.7 5 -1.4 9.6 -2.9 10.3 -3.1 0.9 -0.4 1.2 4.4 1.2 22.1 l0 22.6 22 0 22 0 0 15.5 0 15.5 -22 0 -22 0 0 47.9 c0 28.2 0.4 50 1 53.2 3.2 16.5 12.4 22.6 31.2 20.3 4.6 -0.6 8.5 -0.9 8.8 -0.7 0.8 0.7 1.6 30.5 0.8 30.9 -2.3 1.4 -15.8 3.5 -25.8 3.9 -8 0.3 -13.4 0 -17.8 -1z"/>
  <path d="M1896.8 601 c-33.1 -5.6 -58.5 -29.7 -67.5 -63.9 -3.1 -11.8 -4.2 -34.4 -2.3 -47.3 3 -20.4 11.4 -38.2 24.6 -52 10.8 -11.3 21.6 -17.8 37.1 -22.4 12.7 -3.8 34.6 -4.5 48.7 -1.6 33.2 6.9 57.3 32.2 64.7 67.7 2.4 11.4 2.6 34.7 0.4 46.2 -7.4 39 -33.8 66.5 -70 72.8 -9.2 1.6 -27.7 1.8 -35.7 0.5z m28.7 -30.5 c15.6 -4.1 28.3 -19.7 34.1 -42 2.7 -10.3 2.5 -35.1 -0.4 -45.6 -5.6 -20.9 -17.5 -35.2 -32.6 -39.5 -7.9 -2.2 -19.9 -1.5 -28.1 1.6 -12.1 4.7 -23.2 19.7 -28.2 38 -2.5 9.3 -2.6 38.7 0 48 2.4 9.1 8.8 21.6 14.1 27.6 4.7 5.3 13.6 10.7 20.2 12.3 6.1 1.4 14.4 1.2 20.9 -0.4z"/>
  <path d="M2227.5 600.3 c-6.6 -0.9 -19.2 -4.6 -25.3 -7.3 -21.1 -9.6 -38.3 -30.8 -44.2 -54.5 -5.9 -23.4 -4.1 -52.1 4.7 -73.5 7.1 -17.3 22.4 -35.5 36.4 -43.3 18.6 -10.3 45.2 -13.2 65.9 -7.1 28.3 8.3 47.4 35.2 51.1 71.7 1 10.1 0.6 24.3 -0.7 29 -0.5 1.6 -4.3 1.7 -61.1 1.7 l-60.6 0 0.7 6.1 c3.4 30 24.2 46.8 58 46.9 11.5 0 27.3 -2.2 37.1 -5.1 11.5 -3.5 10.4 -4.3 14.1 11.4 l3.1 13.8 -3.6 1.5 c-6.9 2.9 -20 6.3 -30.4 7.8 -9.7 1.5 -37.2 2 -45.2 0.9z m50 -119 c-1.5 -13.3 -6.8 -25.7 -13.8 -31.9 -12.1 -11 -32.6 -12.5 -46.7 -3.3 -11.1 7.1 -19.8 21.5 -22.6 37.2 l-0.6 3.7 42.2 0 42.1 0 -0.6 -5.7z"/>
  <path d="M804.4 596.3 c0.3 -1 18.6 -57.8 40.6 -126.1 22 -68.4 40 -124.6 40 -124.8 0 -0.2 11.4 -0.4 25.4 -0.4 l25.4 0 2.6 7.8 c14.6 44.6 78.6 243.4 78.6 244.2 0 0.6 -7.9 1 -21.5 1 l-21.4 0 -7 -21.7 c-3.8 -12 -9.1 -28.7 -11.8 -37.1 l-4.8 -15.2 -40.9 0.2 -41 0.3 -11 36.7 -11.1 36.8 -21.3 0 c-19.9 0 -21.3 -0.1 -20.8 -1.7z m138.3 -105.7 c-3.9 -10.2 -24.9 -77.7 -28.6 -92.1 -2.7 -10.4 -5.1 -18.3 -5.5 -17.5 -0.3 0.8 -2.8 10.7 -5.6 22 -4 16.2 -24.8 85 -26.7 88.3 -0.2 0.4 14.7 0.7 33.2 0.7 28.9 0 33.6 -0.2 33.2 -1.4z"/>
  <path d="M2038.8 512 c-0.1 -47.3 -0.2 -88.4 -0.3 -91.2 l0 -5.3 17.5 0 17.5 0 1 17.5 1 17.4 3.8 -7.8 c5.7 -11.4 14.6 -20.5 25.5 -25.8 8.3 -4.2 8.5 -4.2 19.6 -4.3 l11.1 0 0.3 19.2 0.2 19.3 -10.4 -0.1 c-20 -0.2 -31 5.9 -38.9 21.6 -6.2 12.4 -6.1 11 -6.5 70.8 l-0.3 54.7 -20.5 0 -20.4 0 -0.2 -86z"/>
  <path d="M982.8 255.1 c-7.5 -2.4 -11.6 -5.1 -17.1 -11 -8.4 -9 -12.1 -19.5 -12 -34.2 0.1 -14.8 4.6 -26.1 14 -35 9.7 -9.1 23.3 -13.1 37.5 -10.9 22.8 3.5 35.9 20.1 35.9 45.5 0 21.7 -10 38 -27.4 44.7 -7.6 3 -23.3 3.5 -30.9 0.9z m23.2 -15.3 c9.3 -4.7 14.5 -16.9 13.8 -32.3 -0.3 -7.9 -0.8 -10.1 -3.6 -15.8 -5.3 -10.6 -13 -14.8 -23.5 -12.5 -12 2.5 -20 18.1 -18.3 35.6 2.2 21.1 16.6 32.5 31.6 25z"/>
  <path d="M1407.9 255.6 c-20.5 -5.5 -33.2 -27.4 -30.1 -51.8 2.7 -21.8 16.6 -36.8 37 -39.9 23.2 -3.5 42.8 9.2 48.8 31.6 1.8 6.4 1.8 21.6 0 28 -3.2 12.1 -10.6 22.4 -20.1 28 -8.9 5.1 -24.9 7 -35.6 4.1z m21.8 -15.7 c18.3 -8.8 19.1 -48.8 1.1 -58.9 -5 -2.8 -13.8 -3.1 -18.5 -0.6 -4.5 2.3 -10 9.1 -12 15 -2.1 6.1 -2.4 21.8 -0.5 28.3 4.4 14.7 17.8 22 29.9 16.2z"/>
  <path d="M1504.1 255.3 c-5.7 -2 -12.3 -8.7 -14.6 -14.6 -1.3 -3.6 -1.6 -6.5 -1.3 -12.6 0.7 -12.4 5.7 -19.3 18.4 -25.3 7 -3.3 19 -5.8 27.6 -5.8 l6.1 0 -0.7 -4.7 c-0.7 -5.2 -2.7 -8.5 -7 -11.7 -2.3 -1.8 -4.2 -2.1 -11.9 -2.1 -7.6 0.1 -10.3 0.5 -15.7 2.8 -3.5 1.4 -6.8 2.3 -7.1 1.9 -0.4 -0.4 -1.4 -3.2 -2.3 -6.2 -1.5 -5.1 -1.5 -5.6 0.1 -6.7 6.6 -4.9 25.1 -8.1 36.3 -6.4 12.8 2 19.8 7 24.6 17.5 3.1 6.7 3.1 7.4 3.7 49.4 l0.4 24.2 -8.8 0 -8.8 0 -0.7 -5.1 -0.7 -5 -3.6 3.4 c-6.1 5.9 -11.5 8 -21.1 8.4 -6 0.2 -9.8 -0.2 -12.9 -1.4z m28.2 -16.9 c6.1 -4.3 7.7 -8.1 7.7 -18.8 l0 -8.9 -8.5 0.6 c-10.7 0.6 -18.8 4.3 -21.7 9.7 -3.8 7.1 -1 17.2 5.7 20.1 4 1.8 12.3 0.4 16.8 -2.7z"/>
  <path d="M1615.8 255.6 c-12.6 -4.5 -20.8 -13.8 -25.2 -28.5 -1.9 -6.4 -2.1 -22.4 -0.5 -30.3 2.5 -12.2 11.5 -24.5 21.5 -29.6 12.1 -6.2 28 -4.9 37 3.1 l4.4 3.9 0 -25.1 0 -25.1 10.5 0 10.5 0 0 65.5 0 65.5 -9 0 -9 0 0 -4.9 c0 -7.7 -0.8 -8.8 -3.6 -4.9 -3.5 4.7 -9.1 8.6 -14.8 10.3 -6.1 1.8 -16.8 1.9 -21.8 0.1z m26.7 -18 c2.4 -1.3 5.1 -4 7 -7 2.9 -4.8 3 -5.3 3.3 -19 0.4 -16.8 -0.4 -20.3 -6.2 -26.1 -7.3 -7.3 -17.5 -8.1 -26.6 -2.1 -11.5 7.6 -14.7 33.9 -5.7 47.3 6.6 9.8 17.9 12.5 28.2 6.9z"/>
  <path d="M1788.3 256.1 c-16.6 -4.3 -29 -19.3 -31.5 -38.4 -2.2 -16.4 3 -32.5 13.8 -42.7 6.6 -6.2 13.6 -9.5 23.2 -11 23.3 -3.7 44 9.9 49.1 32.1 1.6 6.6 1.3 21.7 -0.4 28.4 -2.3 8.6 -6.1 14.9 -13.1 21.5 -8.4 7.8 -14.6 10.2 -27.9 10.6 -5.5 0.2 -11.4 -0.1 -13.2 -0.5z m23 -17.7 c12.3 -8.7 15.6 -34.1 6.4 -49.5 -4.2 -7.1 -9.8 -10.2 -17.7 -10.2 -6.8 0.1 -10.7 1.9 -15.2 7.2 -5.2 6.1 -7.3 12.9 -7.3 24.1 0 10.7 1.8 17.4 6.4 23.8 6.3 8.6 18.6 10.7 27.4 4.6z"/>
  <path d="M2058.5 255.4 c-5.3 -2 -11 -7.7 -13.2 -13.3 -1.4 -3.9 -1.8 -9.1 -2.1 -32.8 l-0.3 -28.3 -6.5 0 -6.4 0 0 -8 0 -8 6.5 0 6.4 0 0.3 -8.1 0.3 -8.2 9.5 -2.8 c5.2 -1.6 9.6 -2.9 9.8 -2.9 0.1 0 0.2 5 0.2 11 l0 11 11 0 11 0 0 8 0 8 -11 0 -11 0 0 23.3 c0 32.6 0.9 35.1 13.2 35.4 l7.3 0.1 0.3 7.5 0.3 7.4 -4.5 1.2 c-6.1 1.5 -16.2 1.3 -21.1 -0.5z"/>
  <path d="M2251.3 255.5 c-15.3 -3.3 -26.8 -14.4 -30.9 -30 -1.8 -6.7 -1.8 -21.7 0.1 -29 3.6 -13.7 13.9 -26.2 25.2 -30.6 7.8 -3 21.4 -3.2 29.3 -0.5 7.7 2.7 16.9 11.9 19.9 19.9 2.8 7.6 4.5 19.4 3.7 25.2 l-0.7 4.5 -29.8 0 -29.8 0 0.8 5.2 c1.2 7.5 5.3 13.5 11.9 17.2 5.3 3 5.8 3.1 17.5 3 8.1 -0.1 13.6 -0.6 17 -1.7 2.7 -0.9 5 -1.5 5.1 -1.4 0.1 0.1 0.8 3.2 1.7 7 l1.5 6.8 -3.6 1.5 c-5 2.1 -19.3 4.4 -26.6 4.3 -3.3 0 -8.9 -0.7 -12.3 -1.4z m27.4 -59.6 c-0.7 -5.9 -4.1 -12.4 -7.9 -15.2 -3 -2.2 -10.8 -3.3 -16.3 -2.3 -1.9 0.4 -5.1 2 -7 3.7 -3.9 3.5 -8.5 12.1 -8.5 16.1 l0 2.8 20.1 0 20.2 0 -0.6 -5.1z"/>
  <path d="M831.8 255.3 l-3.8 -0.4 0 -61.4 0 -61.4 5.8 -0.8 c3.1 -0.4 15.2 -0.8 26.7 -0.8 19 0 21.8 0.2 29 2.3 19.5 5.7 31.3 16.7 37.7 35.2 2 5.7 2.3 8.4 2.3 23 -0.1 15.4 -0.2 17 -2.8 24.3 -7.7 22.1 -23.6 34.7 -49.3 39.2 -8.1 1.4 -35.3 1.9 -45.6 0.8z m42.7 -16.8 c21.1 -4.5 32.2 -18.5 34.1 -43.1 2 -24.9 -9.3 -43.2 -29.5 -47.8 -7.1 -1.6 -22.2 -2.1 -28 -1 l-3.1 0.7 0 45.7 c0 35.7 0.3 45.9 1.3 46.3 2.6 1.1 18.6 0.6 25.2 -0.8z"/>
  <path d="M1086.5 253.8 c-1.4 -3.7 -25.5 -86.5 -25.5 -87.6 0 -1 2.4 -1.2 10.2 -1 l10.3 0.3 6.7 28.5 c3.7 15.7 7.2 31.5 7.9 35.2 l1.2 6.7 3.3 -12.7 c1.8 -7 6.4 -22.8 10.1 -35.2 l6.8 -22.5 8.4 0 8.4 0 5.4 18.5 c3 10.2 7.3 26 9.7 35.2 l4.2 16.7 1.2 -7.2 c1.2 -6.5 7.6 -32.8 13.4 -54.7 l2.3 -8.5 9.8 -0.3 c5.3 -0.1 9.7 0.1 9.7 0.5 0.1 0.4 -6.1 20.7 -13.7 45.1 l-13.8 44.3 -9.4 -0.3 -9.5 -0.3 -5.8 -19.5 c-3.3 -10.7 -7.4 -25.3 -9.3 -32.5 -1.8 -7.1 -3.5 -12.3 -3.8 -11.5 -0.3 0.8 -1.3 4.7 -2.1 8.5 -0.9 3.9 -5.1 17.9 -9.3 31.3 l-7.6 24.2 -9.4 0 c-6.6 0 -9.5 -0.4 -9.8 -1.2z"/>
  <path d="M1215 210 l0 -45 9 0 9 0 0 6.5 c0 3.6 0.2 6.5 0.5 6.5 0.3 0 2 -1.6 3.7 -3.6 11.8 -13.4 32.5 -14.8 45.5 -3 9.4 8.4 11.5 20 11.1 59.1 l-0.3 24 -10.2 0.3 -10.3 0.3 0 -28.9 c0 -22.8 -0.3 -29.9 -1.5 -33.9 -4.7 -15.7 -25.3 -16.4 -32.9 -1.2 l-2.6 5.3 0 29.3 0 29.3 -10.5 0 -10.5 0 0 -45z"/>
  <path d="M1328 189.5 l0 -65.5 10 0 10 0 0 65.5 0 65.5 -10 0 -10 0 0 -65.5z"/>
  <path d="M1873 213.2 c0 -23.1 -0.3 -43.4 -0.6 -45.1 l-0.6 -3.1 9 0 c10.2 0 10.2 0 10.2 8.4 l0 5.2 5.8 -5.7 c7.1 -6.9 13.5 -9.4 23.8 -9.3 12.7 0 22.7 7 27.6 19.3 2.2 5.4 2.3 7 2.6 38.9 l0.3 33.2 -10 0 -10 0 -0.3 -30.2 c-0.3 -30 -0.3 -30.3 -2.8 -35.3 -3.2 -6.4 -7.5 -9 -15 -9 -6.8 0 -11.3 2.5 -15.5 8.4 l-3 4.3 -0.5 30.6 -0.5 30.7 -10.2 0.3 -10.3 0.3 0 -41.9z"/>
  <path d="M2112 189.5 l0 -65.5 10 0 10 0 0 27.1 0 27.2 4 -4.6 c6 -6.8 13.4 -10 22.9 -10.1 6.4 -0.1 8.5 0.4 13.3 2.7 6.9 3.4 12 9 15 16.6 2.2 5.3 2.3 7.1 2.6 38.9 l0.3 33.2 -10 0 -9.9 0 -0.4 -30.2 c-0.3 -28.7 -0.4 -30.6 -2.5 -35 -6.3 -13.7 -26.6 -12.3 -33.2 2.2 -1.3 2.9 -1.6 8.8 -1.9 33.3 l-0.4 29.7 -9.9 0 -9.9 0 0 -65.5z"/>
  <path d="M438.8 229.4 c-1.5 -1.4 -0.8 -16.9 1.1 -25.9 6.8 -33 30.3 -62.1 62 -76.8 9.1 -4.1 25.1 -8.7 30.7 -8.7 l3.4 0 0 9.4 c0 28.1 -12.5 56.6 -33.7 76.6 -15.9 15.1 -35.4 24.3 -53.9 25.6 -4.9 0.4 -9.2 0.3 -9.6 -0.2z"/>
 </g>
</svg>