<?xml version="1.0" encoding="utf-8"?>
<!-- Generator: Adobe Illustrator 21.1.0, SVG Export Plug-In . SVG Version: 6.00 Build 0)  -->
<svg version="1.1" id="Слой_1" xmlns="http://www.w3.org/2000/svg" xmlns:xlink="http://www.w3.org/1999/xlink" x="0px" y="0px"
	 viewBox="0 0 512 512" style="enable-background:new 0 0 512 512;" xml:space="preserve">
<style type="text/css">
	.st0{fill:none;}
</style>
<polygon class="st0" points="381,185.7 381,185.7 381,185.7 "/>
<path class="st0" d="M211.2,256.9c-16.6,16.6-34.4,32-51.4,42.5h0c-37.7,23.4-70.3,33.6-93.3,37.8c11.9,12.3,30.3,29.3,57.7,49.9
	c3-1.2,10.4-4.7,21.1-13.8c7.2-6.2,18.3-5.5,24.6,1.5c6.4,7,5.6,17.8-1.6,24c-4.8,4.1-9.3,7.5-13.4,10.3
	c7.9,5.4,16.3,10.9,25.2,16.6c11,7,21.8,13.3,32,18.8c13.4-11.8,24.4-26.8,33.4-42.1c4.8-8.2,15.4-11.1,23.7-6.5
	c8.3,4.7,11.1,15.1,6.2,23.3c-11.2,19-22.8,32.9-30.9,41.4c17.3,7.8,31.8,13.2,42,16.7c2.6,0.9,5.4,0,7.1-2.6
	c12.2-18.3,33.6-52.7,51.9-94.4c5.8-13.3,11.9-28.2,17.7-43.4l-152-79.8L211.2,256.9z"/>
<path class="st0" d="M353.1,209l-22.2-11.2c-27.2-13.8-61.4-5.9-82.2,18.4c-4.1,4.8-8.4,9.7-12.9,14.8l139.8,73.4
	c2.7-7.4,5.3-14.7,7.7-21.6C393.3,254.2,380.4,222.8,353.1,209z"/>
<path d="M448.2,6.5c-28.2-14.6-63-3.6-77.6,24.7l-63.9,123.4c-0.3,0.7-0.6,1.3-0.9,2c-31.3-1.1-62.3,12.8-83.2,37.2
	c-24.6,28.8-55,60.3-80.9,76.4c-36.9,22.9-67.5,31.2-86.4,34.1c-11.1,1.7-20.1,8.9-24.5,18.1c-4.6,9.7-4.2,22.3,4.7,32.1
	c19.3,21.3,57.1,56.2,126.2,100.2c47.9,30.5,90.9,47.3,114,55.1c17.7,6,36.7-0.9,46.8-16.1c12.9-19.3,35.4-55.6,54.8-99.7
	c14.3-32.7,26.7-66.4,38.5-100c10-28.4,5.5-58.3-9.7-81.9l66.6-127.9C487.5,56,476.5,21.1,448.2,6.5z M345.8,380.2
	c-18.3,41.7-39.7,76.2-51.9,94.4c-1.7,2.6-4.6,3.5-7.1,2.6c-10.2-3.4-24.7-8.8-42-16.7c8-8.5,19.7-22.3,30.9-41.4
	c4.8-8.2,2-18.7-6.2-23.3c-8.3-4.7-18.9-1.8-23.7,6.5c-9,15.3-20,30.4-33.4,42.1c-10.3-5.5-21-11.8-32-18.8
	c-9-5.7-17.4-11.2-25.2-16.6c4.1-2.8,8.6-6.1,13.4-10.3c7.2-6.2,8-17,1.6-24c-6.4-7-17.4-7.7-24.6-1.5
	c-10.7,9.1-18.1,12.6-21.1,13.8c-27.4-20.6-45.8-37.5-57.7-49.9c23-4.3,55.6-14.4,93.3-37.8h0c17-10.5,34.7-26,51.4-42.5l0.2,0.1
	l152,79.8C357.6,352,351.6,366.9,345.8,380.2z M383.3,282.6c-2.5,7-5,14.2-7.7,21.6l-139.8-73.4c4.5-5,8.8-10,12.9-14.8
	c20.8-24.4,55-32.2,82.2-18.4l22.2,11.2C380.4,222.8,393.3,254.2,383.3,282.6z M442.2,68.3L381,185.7l0,0l0,0l0,0
	c-3.9-2.8-8-5.3-12.4-7.5L346.5,167c-2-1-4-2-6-2.8L401.1,47c5.9-11.4,19.8-15.8,31.2-9.9C443.7,42.9,448.1,56.9,442.2,68.3z"/>
</svg>
