<?xml version="1.0" encoding="utf-8"?>
<!-- Generator: Adobe Illustrator 21.1.0, SVG Export Plug-In . SVG Version: 6.00 Build 0)  -->
<svg version="1.1" id="Слой_1" xmlns="http://www.w3.org/2000/svg" xmlns:xlink="http://www.w3.org/1999/xlink" x="0px" y="0px"
	 viewBox="0 0 512 512" style="enable-background:new 0 0 512 512;" xml:space="preserve">
<style type="text/css">
	.st0{fill:#FFFFFF;}
</style>
<path class="st0" d="M292.2,256l109.9-109.9c10-10,10-26.2,0-36.2s-26.2-10-36.2,0L256,219.8L146.1,109.9c-10-10-26.2-10-36.2,0
	s-10,26.2,0,36.2L219.8,256L109.9,365.9c-10,10-10,26.2,0,36.2c5,5,11.6,7.5,18.1,7.5c6.6,0,13.1-2.5,18.1-7.5L256,292.2
	l109.9,109.9c5,5,11.5,7.5,18.1,7.5s13.1-2.5,18.1-7.5c10-10,10-26.2,0-36.2L292.2,256z"/>
</svg>
