<?xml version="1.0" encoding="utf-8"?>
<!-- Generator: Adobe Illustrator 21.1.0, SVG Export Plug-In . SVG Version: 6.00 Build 0)  -->
<svg version="1.1" id="Capa_1" xmlns="http://www.w3.org/2000/svg" xmlns:xlink="http://www.w3.org/1999/xlink" x="0px" y="0px"
	 viewBox="0 0 2523.5 480.2" style="enable-background:new 0 0 2523.5 480.2;" xml:space="preserve">
<style type="text/css">
	.st0{fill:#DBDBDB;}
	.st1{fill:#24D34E;}
	.st2{fill:#DBCD26;}
	.st3{fill:#CB49D6;}
	.st4{fill:#EA2828;}
	.st5{fill:#19B3DD;}
</style>
<g>
	<g>
		<path class="st0" d="M224.2,47.4l15.9-1.3l10,122.8l-15.9,1.3L224.2,47.4z"/>
		<path class="st0" d="M70,112.4l9.8-12.6l110.9,86.3l-9.8,12.6L70,112.4z"/>
		<path class="st0" d="M68.2,76.6l143.3-50.7l5.3,15.1L73.6,91.7L68.2,76.6z"/>
		<path class="st0" d="M242.1,45.4l6.8-14.5l181.3,85.3l-6.8,14.5L242.1,45.4z"/>
		<path class="st0" d="M78.8,104.7l1.4-15.9L412,118.9l-1.4,15.9L78.8,104.7z"/>
		<path class="st0" d="M432.9,146.9l15.9-1.5l9.3,96.7l-15.9,1.5L432.9,146.9z"/>
		<path class="st0" d="M311.1,247.1l1.3-16l127.8,10.3l-1.3,16L311.1,247.1z"/>
		<path class="st0" d="M408.5,393.3l35.3-126.7l15.4,4.3l-35.3,126.7L408.5,393.3z"/>
		<path class="st0" d="M258.5,437.2l142.4-38.1l4.1,15.5l-142.4,38.1L258.5,437.2z"/>
		<path class="st0" d="M108.8,412.8L430,253l7.1,14.3L115.9,427.2L108.8,412.8z"/>
		<path class="st0" d="M32.8,315.2l14.7-6.2l46.7,110l-14.7,6.2L32.8,315.2z"/>
		<path class="st0" d="M25.6,284.4l22.7-173.3l15.9,2.1L41.4,286.5L25.6,284.4z"/>
		<path class="st0" d="M47.8,277.2l129.1-44l5.2,15.1L53,292.3L47.8,277.2z"/>
		<path class="st0" d="M102.3,447.4l1.2-16l126.7,9.3l-1.2,16L102.3,447.4z"/>
		<path class="st0" d="M242.8,433.2l175-281.1l13.6,8.5l-175,281.1L242.8,433.2z"/>
		<path class="st0" d="M43.5,310.5l9.5-12.8L237.7,435l-9.5,12.8L43.5,310.5z"/>
		<path class="st0" d="M29.2,281.9l184.6-242l12.7,9.7l-184.6,242L29.2,281.9z"/>
		<path class="st0" d="M284.8,294.9l10.9-11.7l109.9,103.1L394.7,398L284.8,294.9z"/>
		<path class="st0" d="M89.1,414l102.7-140l12.9,9.5L102,423.5L89.1,414z"/>
		<path class="st0" d="M297,194.1l111.2-58.6l7.5,14.2l-111.2,58.6L297,194.1z"/>
	</g>
	<path class="st1" d="M247.3,311.8c0.7-0.1,1.3-0.2,2-0.2c0.5-0.1,1-0.1,1.4-0.2c0.7-0.1,1.5-0.2,2.2-0.4c0.4-0.1,0.8-0.1,1.2-0.2
		c0.7-0.1,1.5-0.3,2.2-0.5c0.4-0.1,0.8-0.2,1.2-0.3c0.7-0.2,1.4-0.4,2.1-0.6c0.4-0.1,0.9-0.2,1.3-0.4c0.7-0.2,1.3-0.4,2-0.6
		c0.5-0.2,1-0.3,1.4-0.5c0.6-0.2,1.2-0.4,1.7-0.7c0.5-0.2,1.1-0.4,1.6-0.6c0.5-0.2,1-0.4,1.5-0.6c0.6-0.3,1.2-0.5,1.8-0.8
		c0.4-0.2,0.8-0.4,1.3-0.6c0.6-0.3,1.3-0.6,1.9-1c0.4-0.2,0.7-0.4,1.1-0.6c0.7-0.4,1.3-0.8,2-1.2c0.3-0.2,0.6-0.4,1-0.6
		c0.7-0.4,1.3-0.8,2-1.3c0.3-0.2,0.6-0.4,0.9-0.7c0.6-0.4,1.3-0.9,1.9-1.4c0.3-0.3,0.7-0.5,1-0.8c0.6-0.4,1.2-0.9,1.7-1.4
		c0.4-0.4,0.9-0.7,1.3-1.1c0.5-0.4,0.9-0.8,1.4-1.2c0.8-0.7,1.6-1.5,2.4-2.2c0.1-0.1,0.1-0.1,0.2-0.2s0.1-0.1,0.2-0.2
		c0.8-0.8,1.5-1.6,2.2-2.4c0.4-0.4,0.8-0.9,1.2-1.4c0.4-0.4,0.8-0.9,1.1-1.3c0.5-0.6,0.9-1.1,1.4-1.7c0.3-0.3,0.5-0.7,0.8-1
		c0.5-0.6,0.9-1.3,1.4-1.9c0.2-0.3,0.4-0.6,0.7-0.9c0.4-0.7,0.9-1.3,1.3-2c0.2-0.3,0.4-0.6,0.6-1c0.4-0.7,0.8-1.3,1.2-2
		c0.2-0.4,0.4-0.7,0.6-1.1c0.3-0.6,0.7-1.3,1-1.9c0.2-0.4,0.4-0.8,0.6-1.3c0.3-0.6,0.5-1.2,0.8-1.8c0.2-0.5,0.4-1,0.6-1.5
		c0.2-0.5,0.4-1.1,0.6-1.6c0.2-0.6,0.4-1.2,0.7-1.7c0.2-0.5,0.3-0.9,0.5-1.4c0.2-0.7,0.4-1.3,0.6-2c0.1-0.4,0.2-0.8,0.4-1.3
		c0.2-0.7,0.4-1.4,0.6-2.1c0.1-0.4,0.2-0.8,0.3-1.2c0.2-0.7,0.3-1.5,0.5-2.2c0.1-0.4,0.1-0.8,0.2-1.2c0.1-0.7,0.3-1.5,0.4-2.2
		c0.1-0.5,0.1-1,0.2-1.4c0.1-0.7,0.2-1.4,0.2-2c0.1-0.6,0.1-1.3,0.1-1.9c0-0.5,0.1-1,0.1-1.6c0.1-2.4,0.1-4.8,0-7.1
		c0-0.5-0.1-1-0.1-1.6c0-0.6-0.1-1.3-0.1-1.9c-0.1-0.7-0.2-1.4-0.2-2c-0.1-0.5-0.1-1-0.2-1.4c-0.1-0.7-0.2-1.5-0.4-2.2
		c-0.1-0.4-0.1-0.8-0.2-1.2c-0.1-0.7-0.3-1.5-0.5-2.2c-0.1-0.4-0.2-0.8-0.3-1.2c-0.2-0.7-0.4-1.4-0.6-2.1c-0.1-0.4-0.2-0.9-0.4-1.3
		c-0.2-0.7-0.4-1.3-0.6-2c-0.2-0.5-0.3-1-0.5-1.4c-0.2-0.6-0.4-1.2-0.7-1.7c-0.2-0.5-0.4-1.1-0.6-1.6c-0.2-0.5-0.4-1-0.6-1.5
		c-0.3-0.6-0.5-1.2-0.8-1.8c-0.2-0.4-0.4-0.8-0.6-1.3c-0.3-0.6-0.6-1.3-1-1.9c-0.2-0.4-0.4-0.7-0.6-1.1c-0.4-0.7-0.8-1.3-1.2-2
		c-0.2-0.3-0.4-0.6-0.6-1c-0.4-0.7-0.8-1.3-1.3-2c-0.2-0.3-0.4-0.6-0.7-0.9c-0.4-0.6-0.9-1.3-1.4-1.9c-0.3-0.3-0.5-0.7-0.8-1
		c-0.4-0.6-0.9-1.2-1.4-1.7c-0.4-0.4-0.7-0.9-1.1-1.3c-0.4-0.5-0.8-0.9-1.2-1.4c-0.7-0.8-1.5-1.6-2.2-2.4c-0.1-0.1-0.1-0.1-0.2-0.2
		l0,0c-13-13-31-21.1-50.9-21.1c-39.8,0-72,32.2-72,72c0,19.9,8.1,37.9,21.1,50.9l0,0c0.1,0.1,0.1,0.1,0.2,0.2
		c0.8,0.8,1.6,1.5,2.4,2.2c0.4,0.4,0.9,0.8,1.4,1.2c0.4,0.4,0.9,0.8,1.3,1.1c0.6,0.5,1.1,0.9,1.7,1.4c0.3,0.3,0.7,0.5,1,0.8
		c0.6,0.5,1.3,0.9,1.9,1.4c0.3,0.2,0.6,0.4,0.9,0.6c0.7,0.4,1.3,0.9,2,1.3c0.3,0.2,0.6,0.4,1,0.6c0.7,0.4,1.3,0.8,2,1.2
		c0.4,0.2,0.7,0.4,1.1,0.6c0.6,0.3,1.3,0.7,1.9,1c0.4,0.2,0.8,0.4,1.3,0.6c0.6,0.3,1.2,0.5,1.8,0.8c0.5,0.2,1,0.4,1.5,0.6
		c0.5,0.2,1.1,0.4,1.6,0.6c0.6,0.2,1.2,0.4,1.7,0.7c0.5,0.2,0.9,0.3,1.4,0.5c0.7,0.2,1.3,0.4,2,0.6c0.4,0.1,0.9,0.2,1.3,0.4
		c0.7,0.2,1.4,0.4,2.1,0.6c0.4,0.1,0.8,0.2,1.2,0.3c0.7,0.2,1.5,0.3,2.2,0.5c0.4,0.1,0.8,0.1,1.2,0.2c0.7,0.1,1.5,0.3,2.2,0.4
		c0.5,0.1,1,0.1,1.4,0.2c0.7,0.1,1.3,0.2,2,0.2c0.7,0.1,1.3,0.1,2,0.1c0.5,0,1,0.1,1.5,0.1c2.4,0.1,4.8,0.1,7.1,0
		c0.5,0,1-0.1,1.6-0.1C246,311.9,246.6,311.8,247.3,311.8z"/>
	<g>
		<circle class="st2" cx="232.2" cy="32.1" r="24"/>
		<circle class="st2" cx="32.2" cy="296.1" r="24"/>
	</g>
	<circle class="st3" cx="240.2" cy="448.1" r="24"/>
	<circle class="st3" cx="432.2" cy="136.1" r="24"/>
	<circle class="st4" cx="64.2" cy="96.1" r="24"/>
	<circle class="st5" cx="416.2" cy="408.1" r="24"/>
	<circle class="st4" cx="448.2" cy="256.1" r="24"/>
	<circle class="st5" cx="96.2" cy="432.1" r="24"/>
	<path d="M455.6,225.1l-5.7-62.3c14.7-9.8,18.6-29.7,8.8-44.4c-5.9-8.9-15.9-14.2-26.6-14.2c-5.5,0-11,1.5-15.7,4.3L263.6,38.4
		c3.5-17.3-7.6-34.1-24.9-37.7S204.5,8.3,201,25.6c-0.2,1.2-0.4,2.4-0.5,3.6L83.3,70.6c-5.5-4.2-12.2-6.4-19-6.4
		c-17.7,0-32,14.4-31.9,32.1c0,10.7,5.4,20.7,14.4,26.6L27.3,264.6c-17.4,2.5-29.5,18.7-27,36.2s18.7,29.5,36.2,27
		c0.5-0.1,1.1-0.2,1.6-0.3l35.2,82.3C61,422.3,61.1,442.6,73.7,455c12.6,12.4,32.8,12.2,45.2-0.3c1.7-1.7,3.2-3.6,4.5-5.7L209,455
		c3.8,17.2,20.8,28.1,38,24.3c13.9-3.1,24.1-15,25-29.2L386.5,420c6.5,16.4,25.1,24.5,41.5,17.9c16.4-6.5,24.5-25.1,17.9-41.5
		c-3.2-8.1-9.6-14.5-17.6-17.8l26-91.1c17.3-3.4,28.6-20.2,25.1-37.5C477.1,237.7,467.8,228,455.6,225.1L455.6,225.1z M439.6,225.5
		c-7.9,2.2-14.6,7.4-18.7,14.4l-36.9-3l43.1-69.3c1.7,0.3,3.4,0.5,5.1,0.5c0.7,0,1.4-0.2,2.1-0.2L439.6,225.5z M399.8,380.8
		l-66.5-62.3l88.5-44.3c4,5.7,9.7,9.9,16.2,12.1l-25.8,90.2C407.9,377.1,403.7,378.5,399.8,380.8L399.8,380.8z M384.6,404L269,434.4
		c-1.1-2.2-2.4-4.3-3.9-6.2l59.6-95.9l63.9,59.9C386.5,395.8,385.2,399.8,384.6,404L384.6,404z M221.5,422.3l-38.6-28.6l122.9-61.5
		l-53.6,86.3C242,414.3,230.4,415.7,221.5,422.3L221.5,422.3z M117.6,408.5c-1.1-1-2.3-2-3.5-2.9l20.7-27.6l17.6,13L117.6,408.5z
		 M144.3,365.3l46.6-62.2c29.7,23.4,71.8,22.7,100.6-1.8l14,13.1l-137.2,68.6L144.3,365.3z M225.9,63.5l3,38.4l-39.2-3.6l28.7-37.4
		C220.8,62.1,223.3,62.9,225.9,63.5L225.9,63.5z M170.9,96.5l-75.4-7c-0.4-1.9-1-3.8-1.8-5.7l109.4-38.6c0.8,1.9,1.9,3.7,3,5.3
		L170.9,96.5z M94.6,105.5l64.8,6L135.3,143l-42.4-33C93.6,108.6,94.1,107.1,94.6,105.5z M178.2,113.3l52,4.8l3.3,42.4
		c-18,1.5-34.9,9.1-48.1,21.6l-37.5-29.2L178.2,113.3z M416.5,259l-67.2,33.6l25.1-40.4l41.8,3.3c0,0.2-0.1,0.4-0.1,0.6
		C416.2,257.1,416.4,258.1,416.5,259L416.5,259z M322,306.3l-1.1,0.5l-18.1-17c9.6-12.1,15.6-26.7,17-42l36.7,2.9L322,306.3z
		 M176.2,240.1c0-35.3,28.7-64,64-64s64,28.7,64,64s-28.7,64-64,64C204.9,304.1,176.3,275.5,176.2,240.1z M319.8,231.7
		c-1-9.5-3.8-18.8-8.1-27.4l94.5-49.8c1.7,2.4,3.8,4.5,6.1,6.3L366,235.4L319.8,231.7z M400.6,139.5l-97.5,51.3
		c-13.1-16.8-32.4-27.6-53.6-30.1l-3.2-41.1l154.1,14.3c-0.1,0.7-0.2,1.4-0.2,2.2C400.2,137.3,400.4,138.4,400.6,139.5L400.6,139.5z
		 M174.9,194.1c-9.5,13.3-14.6,29.2-14.7,45.6L55.7,274.5c-0.2-0.2-0.4-0.5-0.6-0.7l83-108.3L174.9,194.1z M63.3,288.9l98.5-32.8
		c2.7,13.3,8.7,25.6,17.6,35.9l-47.9,63.8L62.8,305c0.9-2.9,1.4-5.8,1.4-8.8C64.2,293.7,63.9,291.2,63.3,288.9z M448.2,136.1
		c0,8.8-7.2,16-16,16s-16-7.2-16-16s7.2-16,16-16S448.2,127.3,448.2,136.1z M398.2,117.7l-153.1-14.2l-3.2-41
		c5.7-1.8,10.7-5.2,14.5-9.7L398.2,117.7z M232.2,16.1c8.8,0,16,7.2,16,16s-7.2,16-16,16s-16-7.2-16-16S223.4,16.1,232.2,16.1z
		 M64.2,80.1c8.8,0,16,7.2,16,16s-7.2,16-16,16s-16-7.2-16-16S55.4,80.1,64.2,80.1z M64.2,128.1c6.6,0,13-2,18.3-5.8l43,33.4
		L43.8,262.3l18.3-134.4C62.8,128,63.5,128.1,64.2,128.1z M16.2,296.1c0-8.8,7.2-16,16-16s16,7.2,16,16s-7.2,16-16,16
		S16.2,305,16.2,296.1z M54.7,318.9l67.2,49.7l-23.8,31.8c-0.6,0-1.2-0.2-1.9-0.2c-3,0-6.1,0.5-9,1.4l-34.7-80.9
		C53.3,320,54,319.5,54.7,318.9z M96.2,448.1c-8.8,0-16-7.2-16-16s7.2-16,16-16s16,7.2,16,16S105,448.1,96.2,448.1z M126.4,422
		l40.4-20.2l44.5,32.9c-0.6,1.4-1.2,2.9-1.6,4.5l-81.6-5.8c0-0.4,0.1-0.7,0.1-1.1C128.2,428.6,127.6,425.2,126.4,422L126.4,422z
		 M240.2,464.1c-8.8,0-16-7.2-16-16s7.2-16,16-16s16,7.2,16,16S249,464.1,240.2,464.1z M416.2,424.1c-8.8,0-16-7.2-16-16
		s7.2-16,16-16s16,7.2,16,16S425,424.1,416.2,424.1z M448.2,272.1c-8.8,0-16-7.2-16-16s7.2-16,16-16s16,7.2,16,16
		C464.2,265,457,272.1,448.2,272.1z"/>
</g>
<g>
	<path d="M636.3,147.4v188.7h-42.8V147.4H636.3z"/>
	<path d="M673.3,336.1V147.4h49.8l39.2,69.2c11.2,19.9,22.4,43.4,30.8,64.7h0.8c-2.8-24.9-3.6-50.4-3.6-78.7v-55.2h39.2v188.7h-44.8
		l-40.3-72.8c-11.2-20.2-23.5-44.5-32.8-66.6l-0.8,0.3c1.1,24.9,1.7,51.5,1.7,82.3v56.8H673.3z"/>
	<path d="M866.5,147.4h115.4v35h-72.5v43.1h67.8v34.7h-67.8v75.9h-42.8V147.4z"/>
	<path d="M1056.9,147.4v188.7H1014V147.4H1056.9z"/>
	<path d="M1093.8,336.1V147.4h49.8l39.2,69.2c11.2,19.9,22.4,43.4,30.8,64.7h0.8c-2.8-24.9-3.6-50.4-3.6-78.7v-55.2h39.2v188.7
		h-44.8l-40.3-72.8c-11.2-20.2-23.5-44.5-32.8-66.6l-0.8,0.3c1.1,24.9,1.7,51.5,1.7,82.3v56.8H1093.8z"/>
	<path d="M1329.9,147.4v188.7H1287V147.4H1329.9z"/>
	<path d="M1403.2,183.2h-50.7v-35.8h145v35.8h-51.5v152.9h-42.8V183.2z"/>
	<path d="M1632.5,256.3h-69.4v44.8h77.6v35h-120.4V147.4h116.5v35h-73.6v39.2h69.4V256.3z"/>
	<path d="M1864.9,330.8c-7.8,3.9-25.5,8.1-48.4,8.1c-65.2,0-98.8-40.6-98.8-94.4c0-64.4,45.9-100.2,103-100.2
		c22.1,0,38.9,4.5,46.5,8.4l-8.7,33.9c-8.7-3.6-20.7-7-35.8-7c-33.9,0-60.2,20.4-60.2,62.4c0,37.8,22.4,61.6,60.5,61.6
		c12.9,0,27.2-2.8,35.6-6.2L1864.9,330.8z"/>
	<path d="M1892.9,149.9c13.7-2.2,34.2-3.9,56.8-3.9c28,0,47.6,4.2,61,14.8c11.2,9,17.4,22.1,17.4,39.5c0,24.1-17.1,40.6-33.3,46.5
		v0.8c13.2,5.3,20.4,17.9,25.2,35.3c5.9,21.3,11.8,45.9,15.4,53.2h-43.7c-3.1-5.3-7.6-20.7-13.2-44c-5-23.5-13.2-30-30.5-30.2h-12.9
		v74.2h-42.3V149.9z M1935.2,231.1h16.8c21.3,0,33.9-10.6,33.9-27.2c0-17.4-11.8-26-31.4-26.3c-10.4,0-16.2,0.8-19.3,1.4V231.1z"/>
	<path d="M2105.4,287.7l-13.4,48.4h-44.2l57.7-188.7h56l58.5,188.7H2174l-14.6-48.4H2105.4z M2153.3,255.8l-11.8-40
		c-3.4-11.2-6.7-25.2-9.5-36.4h-0.6c-2.8,11.2-5.6,25.5-8.7,36.4l-11.2,40H2153.3z"/>
	<path d="M2245.2,147.4h115.4v35H2288v43.1h67.8v34.7H2288v75.9h-42.8V147.4z"/>
	<path d="M2429.1,183.2h-50.7v-35.8h145v35.8H2472v152.9h-42.8V183.2z"/>
</g>
</svg>
