<?xml version="1.0" encoding="utf-8"?>
<!-- Generator: Adobe Illustrator 21.1.0, SVG Export Plug-In . SVG Version: 6.00 Build 0)  -->
<svg version="1.1" id="Слой_1" xmlns="http://www.w3.org/2000/svg" xmlns:xlink="http://www.w3.org/1999/xlink" x="0px" y="0px"
	 viewBox="0 0 512 433" style="enable-background:new 0 0 512 433;" xml:space="preserve">
<path d="M1.7,57.3c0.9-0.1,2-0.2,3.2-0.2c1,0,2.8,0.1,5.3,0.4c6,0.4,10.3,0.6,12.9,0.8V59c0,8.2-0.1,20.7-0.4,37.6
	c-0.4,16.8-0.6,33.7-0.6,50.8c0,16,0.3,30.4,0.8,43.1c-1,0.8-3.5,1.1-7.6,1.1l-10.4-0.2c-1.6,0-3.2,0.1-4.7,0.4
	c0.5-9.6,0.8-21,0.8-34.2c0-8.1-0.1-14.2-0.2-18.3L0.2,107L0,90.2c0-11.1,0.6-21.9,1.7-32.5V57.3z"/>
<path d="M61.4,97.2c0.3,1.4,0.4,3.2,0.4,5.3v4.7c4.3-2.5,9.3-4.8,15.1-6.7c5.8-2,11.6-2.9,17.4-2.9c6.9,0.3,12.6,2.2,17,5.9
	c3,2.6,4.5,13.4,4.5,32.3c0,4.8-0.1,12.2-0.4,22.3c-0.3,9.6-0.4,16.5-0.4,20.8c0,5.5,0.1,9.5,0.2,11.9c-2.4,0.4-5.9,0.6-10.4,0.6
	h-6.2c-0.3-2-0.4-5.5-0.4-10.6v-8.1l0.2-12.1c0.3-8.2,0.3-14,0.2-17.6c0-0.8-0.2-3.3-0.5-7.7c-0.3-4.4-1-8.3-2.2-11.7
	c-0.4-4.4-3.5-6.4-9.3-6c-8.7,0.1-15.1,1.3-19.2,3.6c-4.1,2.3-6.4,6.4-6.9,12.3c-0.1,1.6-0.2,4.7-0.2,9.3c0,7.1,0.1,14.6,0.4,22.7
	c0.3,4.8,0.4,8.3,0.4,10.6c0,4.7-0.2,9.5-0.6,14.4v0.8c-2.4,0.5-4.8,0.7-7.1,0.7c-2.3-0.1-4-0.1-5-0.1c-2,0-3.6,0.1-4.7,0.2
	l-0.2-32.5c-0.3-14.9-0.4-26-0.4-33.5c0-6,0.1-15.6,0.4-28.7c1.5,0.1,3.3,0.2,5.3,0.2c2,0,3.7-0.1,4.9-0.2c0.8,0,1.6-0.1,2.6-0.2
	c1-0.1,2-0.2,3-0.2C60.8,96.7,61.4,96.8,61.4,97.2z"/>
<path d="M158.2,120.7v69.9c-1.9-0.1-4.1-0.1-6.6,0.2L147,191c-2,0-3.7-0.1-4.9-0.4c-0.5-3-0.8-14-0.8-32.9l0.2-22.9
	c0.1-3.8,0.2-8.5,0.2-14.2c-1.4,0.1-4.2,0.2-8.3,0.2c-1.1-0.1-2.8-0.2-4.9-0.2c-1.9,0-3.3,0.1-4.2,0.2l-0.6-16.3
	c9.3,0,15.2,0.1,17.6,0.2l-0.2-7.6c0-9.5,1.5-17.4,4.4-23.8c3-6.4,8.7-10.2,17.1-11.3c6.9-0.6,14.4-0.9,22.3-0.9h7.4
	c0.8,2.4,1.1,4.9,1.1,7.6c0,1.4-0.3,4.6-0.9,9.6c-2.1-0.1-9.2,0.1-21.2,0.6c-4,0.3-6.8,0.6-8.3,1c-1.5,0.4-2.6,1.6-3.4,3.5
	c-0.8,1.9-1.1,5.2-1.1,10c0,1.6,0.1,5.6,0.4,11.9c7.4-0.1,18.5-0.2,33.3-0.2c-0.1,0.5-0.3,2.6-0.6,6.2c0,3.8-0.1,7.1-0.4,10
	l-21.7-0.6L158.2,120.7z"/>
<path d="M205.3,95.7c0.9-0.1,2.6-0.1,5.3,0c3.8,0.3,7.9,0.4,12.5,0.4v0.6c0,5.7-0.1,14.4-0.4,26.3c-0.4,12.1-0.6,24.3-0.6,36.7
	c0,11.6,0.3,21.9,0.8,31c-1.8,0.4-4.4,0.6-7.9,0.6c-3.5,0-5.7,0-6.4,0c-2.3,0-3.7,0.1-4.2,0.2c0.1-3.7,0.2-9.2,0.2-16.6v-17v-15.9
	c-0.3-8.8-0.4-15.6-0.4-20.4c0-8.7,0.4-17.2,1.1-25.5V95.7z M204.5,55.1c7.8,0.3,13.7,0.4,17.8,0.4l0.6,24.9
	c-1.3,0.6-3.5,0.9-6.8,0.9c-2,0-3.5-0.1-4.5-0.2c-0.8,0-1.6,0-2.6-0.1c-1-0.1-2.2,0-3.6,0.1c0-1.9-0.1-5-0.4-9.3
	C204.5,63.6,204.4,58,204.5,55.1z"/>
<path d="M257.2,97.2c0.3,1.4,0.4,3.2,0.4,5.3v4.7c4.3-2.5,9.3-4.8,15.1-6.7c5.8-2,11.6-2.9,17.4-2.9c6.9,0.3,12.6,2.2,17,5.9
	c3,2.6,4.5,13.4,4.5,32.3c0,4.8-0.1,12.2-0.4,22.3c-0.3,9.6-0.4,16.5-0.4,20.8c0,5.5,0.1,9.5,0.2,11.9c-2.4,0.4-5.9,0.6-10.4,0.6
	h-6.2c-0.3-2-0.4-5.5-0.4-10.6v-8.1l0.2-12.1c0.3-8.2,0.3-14,0.2-17.6c0-0.8-0.2-3.3-0.5-7.7c-0.3-4.4-1-8.3-2.2-11.7
	c-0.4-4.4-3.5-6.4-9.3-6c-8.7,0.1-15.1,1.3-19.2,3.6c-4.1,2.3-6.4,6.4-6.9,12.3c-0.1,1.6-0.2,4.7-0.2,9.3c0,7.1,0.1,14.6,0.4,22.7
	c0.3,4.8,0.4,8.3,0.4,10.6c0,4.7-0.2,9.5-0.6,14.4v0.8c-2.4,0.5-4.8,0.7-7.1,0.7c-2.3-0.1-4-0.1-5-0.1c-2,0-3.6,0.1-4.7,0.2
	l-0.2-32.5c-0.3-14.9-0.4-26-0.4-33.5c0-6,0.1-15.6,0.4-28.7c1.5,0.1,3.3,0.2,5.3,0.2c2,0,3.7-0.1,4.9-0.2c0.8,0,1.6-0.1,2.6-0.2
	c1-0.1,2-0.2,3-0.2C256.6,96.7,257.2,96.8,257.2,97.2z"/>
<path d="M329.4,95.7c0.9-0.1,2.6-0.1,5.3,0c3.8,0.3,7.9,0.4,12.5,0.4v0.6c0,5.7-0.1,14.4-0.4,26.3c-0.4,12.1-0.6,24.3-0.6,36.7
	c0,11.6,0.3,21.9,0.8,31c-1.8,0.4-4.4,0.6-7.9,0.6c-3.5,0-5.7,0-6.4,0c-2.3,0-3.7,0.1-4.2,0.2c0.1-3.7,0.2-9.2,0.2-16.6v-17v-15.9
	c-0.3-8.8-0.4-15.6-0.4-20.4c0-8.7,0.4-17.2,1.1-25.5V95.7z M328.7,55.1c7.8,0.3,13.7,0.4,17.8,0.4l0.6,24.9
	c-1.3,0.6-3.5,0.9-6.8,0.9c-2,0-3.5-0.1-4.5-0.2c-0.8,0-1.6,0-2.6-0.1c-1-0.1-2.2,0-3.6,0.1c0-1.9-0.1-5-0.4-9.3
	C328.7,63.6,328.5,58,328.7,55.1z"/>
<path d="M395.8,61.7v28.9l0.2,10.6c8.2-0.3,18.3-0.7,30.4-1.3c0.8,1,1.1,2.9,1.1,5.7l-0.2,4.3c-0.3,2.8-0.3,4.8-0.2,6
	c-13.7,0-24-0.1-30.8-0.2v28.9v6.4c0,5.7,0.1,9.7,0.4,12.1c0.3,2.4,0.8,4.5,1.5,6.2c2,2.5,6.1,4.1,12.2,4.7
	c6.1,0.6,11.7,0.8,16.7,0.6c0.6,5,0.9,8.3,0.9,9.6c0,2.3-0.3,4.5-0.9,6.8c-2.6,0.1-6.8,0.2-12.5,0.2c-9.8,0-17.5-1.2-23.1-3.6
	c-5.5-2.4-9.1-7.2-10.6-14.4c-1.4-12.2-2.1-28.2-2.1-47.8v-9.1c-0.8,0.1-2.6,0.2-5.7,0.2l-14.4-0.2l0.6-15.5
	c2.8,0.3,9.4,0.4,19.8,0.4l-0.2-19.8v-8.9c0-5.3,0.1-9,0.4-11.2c1.8-0.1,4.5-0.1,8.1,0.2l5.1,0.2C394.1,61.9,395.1,61.8,395.8,61.7z
	"/>
<path d="M450.6,143.3v3.4l-0.2,5.5c0,15.6,7.7,23.4,23.1,23.4c6.2,0,10.7-1.4,13.7-4.3c3-2.8,4.4-6.7,4.4-11.6
	c0-0.8-0.1-2.1-0.4-4.2c2.6-0.4,5.1-0.6,7.4-0.6c2,0,3.5,0.1,4.5,0.2c0.8,0,1.7,0,2.7,0.1c1.1,0.1,2.3,0,3.7-0.1
	c0.1,7.2-0.1,12.9-0.8,17.2c-0.6,4.3-2.1,8.4-4.5,12.3c-2.3,3.4-6.2,5.8-11.8,7.3c-5.6,1.4-11.8,2.2-18.4,2.2c-3,0-5.8-0.1-8.4-0.4
	c-2.6-0.3-4.2-0.5-4.8-0.8c-9.8-1.6-16.9-7.8-21.4-18.6c-4.4-10.8-6.3-23.1-5.7-37c0.1-1,0.3-3.1,0.6-6.3c0.3-3.2,0.6-6.5,1-9.9
	c0.4-3.4,1.3-6.7,2.6-10c2.4-5.5,6.7-9.8,13-12.9c6.3-3,13.3-4.5,21-4.5c4,0,8.3,0.5,12.7,1.5c17.1,2.9,25.7,15.8,25.7,38.7
	c0,1.9-0.1,4.6-0.4,8.1c-2.4,0.8-9.5,1.4-21.2,1.9c-1.4,0.1-4.4,0.2-9.1,0.2c-10,0-17.3-0.1-22.1-0.4
	C454.4,143.9,452.1,143.7,450.6,143.3z M496.5,129.2c-0.1-3.9-1.1-7.7-2.9-11.5c-1.8-3.8-4.4-6.7-7.8-8.9c-1.9-0.9-3.5-1.4-4.9-1.7
	c-1.4-0.3-3.2-0.4-5.3-0.4c-8.2,0-14,1.7-17.5,5.1c-3.5,3.4-5.6,8.3-6.5,14.6c-0.3,1.5-0.4,2.5-0.4,3c0,1.5,0.7,2.5,2.2,3
	c1.4,0.5,4.6,0.8,9.4,0.8c4.7,0,8.6-0.1,11.9-0.2c12.1,0,18.9-0.1,20.4-0.2c0.6-0.1,1-0.3,1.2-0.5c0.2-0.2,0.3-0.5,0.3-1V129.2z"/>
<path d="M146.7,320.7c-0.3,6.6-0.4,11.1-0.4,13.6c0,8.2,0.8,14.6,2.5,19.1c1.6,4.5,4.8,7.8,9.6,9.6c3.4,0.8,6.5,1.1,9.3,1.1
	c8.7,0,15.1-3.1,19.3-9.4c4.2-6.3,6.2-15.4,6-27.2c1.4,0.1,2.7,0.2,3.9,0.1c1.2-0.1,2.2-0.1,3.1-0.1c1.1-0.1,2.7-0.2,4.7-0.2
	c2.4,0,4.1,0.1,5.1,0.4c1.1,4.3,1.7,8.5,1.7,12.7c0,7.6-1.6,14.6-4.9,21.1c-3.3,6.5-7.9,11.7-13.9,15.6c-6,3.9-12.8,6-20.3,6.2
	c-2.4,0.4-4.9,0.6-7.4,0.6c-9.1,0-17-2.1-23.9-6.4c-6.9-4.3-10.7-10.7-11.6-19.3c-0.6-12.6-0.9-26.1-0.9-40.4
	c0-6.7,0.1-11.9,0.2-15.7l0.2-22.9c0-7.8,2-14.8,6-20.9c4-6.1,9.4-10.1,16.2-12c4.9-1.6,10-2.5,15.1-2.5c8.3,0,15.9,2.1,22.9,6.3
	c6.9,4.2,12.4,10,16.5,17.2c4.1,7.2,6.1,15.2,6.1,23.7c0,3.5-0.4,7.1-1.1,10.8c-3.8,0.6-6.8,0.9-9.1,0.9c-2.5,0-5.5-0.4-9.1-1.1v-6
	c0-6.8-0.7-12.3-2.1-16.4c-1.4-4.2-4.5-7.5-9.5-10c-3.4-2.4-8.5-3.6-15.3-3.6c-2,0-3.6,0.1-4.7,0.2c-5,0.3-8.7,3.9-11,11
	c-2.3,7.1-3.3,18.5-3,34.4L146.7,320.7z"/>
<path d="M238.9,287.3c0,1.5,0,2.7,0.1,3.5c0.1,0.8,0.1,1.8,0.1,2.9c0.9-0.5,2.1-1.1,3.7-1.7c1.6-0.6,3.3-1.3,5.2-1.9
	c2.9-1,6.4-1.7,10.5-2.2c4.1-0.4,7.8-0.7,11.1-0.7c3,0,4.5,0.1,4.5,0.4l-0.2,15.7c0,2.5,0.1,4.4,0.2,5.7c-1.9-0.8-4-1.4-6.4-2.1
	c-2.8-0.6-5.8-0.9-9.1-0.9c-3.4,0-7.2,0.5-11.5,1.5c-3.5,0.9-5.9,2.2-7.2,4c-1.3,1.8-1.8,5.1-1.7,10c0.5,17.3,0.8,36.9,0.8,58.8v0.8
	c-2.1,0.5-4.3,0.8-6.6,0.8c-0.9,0-2.3,0-4.3-0.1c-2-0.1-3.9,0-6,0.1l-0.2-32.5c-0.3-14.9-0.4-26-0.4-33.5c0-6,0.1-15.6,0.4-28.7
	c1.3,0.1,2.6,0.2,4.1,0.1c1.4-0.1,2.7-0.1,3.9-0.1c1.5-0.1,3.5-0.2,6-0.2C237.9,286.9,238.9,287,238.9,287.3z"/>
<path d="M345.9,286.3c2.9-0.1,6.6,0,11.2,0.4l4.9,0.4c0.3,2,0.4,3.5,0.4,4.5v1.9c-0.1,2.9-0.2,7.2-0.2,13c0,4.8,0.1,11.8,0.4,21.2
	l0.2,21.2c0,9.1-0.3,17.3-0.8,24.8c0,0.4,0,1.2,0,2.5c0,1.3-0.1,2.4-0.4,3.4c-0.3,1-0.9,1.6-2.1,1.9h-3.2l-6-0.2
	c-1,0-1.9,0.1-2.6,0.2c-0.8,0.1-1.4,0.2-2.1,0.2c-1.3-0.4-1.9-1.8-1.9-4.2c-0.1-1-0.1-2.1,0.1-3.4c0.2-1.3,0.3-2.3,0.3-3.2
	c-3,4.2-7.8,7-14.4,8.5c-6.6,1.5-13,2.3-19.3,2.3c-6,0-11.2-2.7-15.4-8c-4.2-5.4-7.3-11.9-9.4-19.8c-2-7.8-3-15.4-3-22.9
	c0-8.2,1.4-15.6,4.2-22.1c2.8-6.5,6.6-11.7,11.4-15.6c4.8-3.8,10.2-5.8,16.2-6l6-0.2c5.7,0,10.4,0.7,14.1,2c3.7,1.3,6.5,3.8,8.2,7.3
	c0-1.1,0.1-2.6,0.4-4.3c0.3-2.5,0.4-4.3,0.4-5.3C343.4,286.5,344.2,286.3,345.9,286.3z M324.7,303.3c-6.6-0.1-12.1,1.5-16.5,5
	c-4.5,3.5-7.2,7.6-8.2,12.4c-1,3.7-1.5,8.6-1.5,14.7c0.6,20.3,8.8,30,24.6,29.1c6.4,0,11.1-1.1,14-3.4c2.9-2.3,4.7-5.5,5.4-9.6
	c0.7-4.2,1-10.4,1-18.7c0-9.1-0.4-15.5-1.1-19.2c-0.8-3.7-2.4-6.3-4.8-7.7C335,304.6,330.7,303.7,324.7,303.3z"/>
<path d="M405.4,310.7v69.9c-1.9-0.1-4.1-0.1-6.6,0.2l-4.5,0.2c-2,0-3.7-0.1-4.9-0.4c-0.5-3-0.8-14-0.8-32.9l0.2-22.9
	c0.1-3.8,0.2-8.5,0.2-14.2c-1.4,0.1-4.2,0.2-8.3,0.2c-1.1-0.1-2.8-0.2-4.9-0.2c-1.9,0-3.3,0.1-4.2,0.2l-0.6-16.3
	c9.3,0,15.2,0.1,17.6,0.2l-0.2-7.6c0-9.5,1.5-17.4,4.4-23.8c3-6.4,8.7-10.2,17.1-11.3c6.9-0.6,14.4-0.9,22.3-0.9h7.4
	c0.8,2.4,1.1,4.9,1.1,7.6c0,1.4-0.3,4.6-0.9,9.6c-2.1-0.1-9.2,0.1-21.2,0.6c-4,0.3-6.8,0.6-8.3,1c-1.5,0.4-2.6,1.6-3.4,3.5
	c-0.8,1.9-1.1,5.2-1.1,10c0,1.6,0.1,5.6,0.4,11.9c7.4-0.1,18.5-0.2,33.3-0.2c-0.1,0.5-0.3,2.6-0.6,6.2c0,3.8-0.1,7.1-0.4,10
	l-21.7-0.6L405.4,310.7z"/>
<path d="M479.7,256v28.9l0.2,10.6c8.2-0.3,18.3-0.7,30.4-1.3c0.8,1,1.1,2.9,1.1,5.7l-0.2,4.3c-0.3,2.8-0.3,4.8-0.2,6
	c-13.7,0-24-0.1-30.8-0.2v28.9v6.4c0,5.7,0.1,9.7,0.4,12.1c0.3,2.4,0.8,4.5,1.5,6.2c2,2.5,6.1,4.1,12.2,4.7
	c6.1,0.6,11.7,0.8,16.7,0.6c0.6,5,0.9,8.3,0.9,9.6c0,2.3-0.3,4.5-0.9,6.8c-2.6,0.1-6.8,0.2-12.5,0.2c-9.8,0-17.5-1.2-23.1-3.6
	c-5.5-2.4-9.1-7.2-10.6-14.4c-1.4-12.2-2.1-28.2-2.1-47.8v-9.1c-0.8,0.1-2.6,0.2-5.7,0.2l-14.4-0.2l0.6-15.5
	c2.8,0.3,9.4,0.4,19.8,0.4l-0.2-19.8v-8.9c0-5.3,0.1-9,0.4-11.2c1.8-0.1,4.5-0.1,8.1,0.2l5.1,0.2C478,256.2,479,256.1,479.7,256z"/>
</svg>
