<?xml version="1.0" standalone="no"?>
<!DOCTYPE svg PUBLIC "-//W3C//DTD SVG 20010904//EN"
 "http://www.w3.org/TR/2001/REC-SVG-20010904/DTD/svg10.dtd">
<svg version="1.0" xmlns="http://www.w3.org/2000/svg"
 width="839.000000pt" height="839.000000pt" viewBox="0 0 839.000000 839.000000"
 preserveAspectRatio="xMidYMid meet">
<metadata>
Created by potrace 1.14, written by Peter Selinger 2001-2017
</metadata>
<g transform="translate(0.000000,839.000000) scale(0.100000,-0.100000)"
fill="#000000" stroke="none">
<path d="M715 8383 c-214 -49 -245 -61 -345 -128 -174 -118 -277 -264 -331
-470 l-24 -90 0 -1340 0 -1340 24 -90 c30 -115 60 -182 115 -259 56 -79 108
-132 176 -183 106 -79 167 -106 320 -142 83 -20 113 -20 1415 -18 l1330 2 84
23 c202 56 354 164 466 332 58 87 87 159 114 280 20 94 21 111 18 1415 l-2
1320 -24 90 c-30 114 -51 162 -106 245 -56 85 -128 158 -217 220 -81 57 -167
92 -293 120 -87 19 -131 19 -1395 19 -718 -1 -1314 -3 -1325 -6z"/>
<path d="M5010 8383 c-120 -21 -302 -87 -342 -126 -7 -6 -31 -25 -53 -42 -125
-92 -229 -251 -277 -425 l-23 -85 0 -1335 c0 -734 4 -1353 8 -1375 31 -160 66
-243 148 -352 110 -145 279 -261 421 -289 13 -2 50 -11 83 -19 51 -12 252 -14
1390 -12 l1330 2 85 24 c114 32 179 62 259 118 83 59 150 129 207 215 59 88
88 163 114 287 20 100 20 120 18 1424 l-3 1322 -26 85 c-35 116 -59 168 -116
247 -62 88 -131 155 -222 216 -31 21 -148 77 -170 82 -9 2 -56 13 -106 24 -88
20 -117 20 -1395 19 -718 0 -1316 -3 -1330 -5z"/>
<path d="M715 4073 c-61 -9 -188 -44 -242 -68 -119 -53 -248 -165 -327 -284
-62 -93 -87 -154 -112 -271 -3 -14 -9 -44 -15 -68 -5 -25 -9 -558 -9 -1345 1
-1104 3 -1311 15 -1362 8 -33 17 -73 20 -88 14 -72 80 -202 143 -278 105 -130
248 -222 417 -270 l80 -23 1340 -3 1340 -2 115 30 c197 51 337 148 456 315 53
75 84 142 115 254 l24 85 2 1325 c2 1126 1 1334 -12 1386 -8 34 -16 72 -19 85
-16 86 -58 174 -127 266 -109 144 -256 246 -417 287 -31 8 -70 18 -87 23 -31
8 -2645 14 -2700 6z"/>
<path d="M5039 4076 c-2 -2 -22 -6 -44 -10 -224 -33 -396 -136 -533 -321 -74
-100 -96 -153 -132 -310 -17 -75 -18 -159 -19 -1390 l0 -1310 24 -101 c29
-121 57 -187 118 -276 57 -83 106 -133 194 -196 83 -60 110 -74 194 -101 65
-21 74 -24 162 -41 30 -6 556 -10 1350 -9 l1302 0 100 24 c126 29 210 67 300
135 164 124 252 260 300 464 l25 101 -3 1325 -2 1325 -24 90 c-30 115 -51 162
-107 246 -110 163 -291 295 -444 322 -3 0 -34 9 -70 19 -61 16 -155 17 -1376
18 -721 0 -1312 -2 -1315 -4z"/>
</g>
</svg>
