<?xml version="1.0" encoding="utf-8"?>
<!-- Generator: Adobe Illustrator 21.1.0, SVG Export Plug-In . SVG Version: 6.00 Build 0)  -->
<svg version="1.1" id="Capa_1" xmlns="http://www.w3.org/2000/svg" xmlns:xlink="http://www.w3.org/1999/xlink" x="0px" y="0px"
	 viewBox="0 0 30.2 30.2" style="enable-background:new 0 0 30.2 30.2;" xml:space="preserve">
<style type="text/css">
	.st0{fill:#C8C8C8;}
</style>
<g>
	<path class="st0" d="M20.2,3.5c-4.6-4.6-12.1-4.6-16.7,0c-4.6,4.6-4.6,12.1,0,16.7c4.1,4.1,10.5,4.5,15.1,1.3
		c0.1,0.5,0.3,0.9,0.7,1.3l6.7,6.7c1,1,2.6,1,3.5,0c1-1,1-2.6,0-3.5l-6.7-6.7c-0.4-0.4-0.8-0.6-1.3-0.7C24.7,14,24.3,7.6,20.2,3.5z
		 M18.1,18.1c-3.4,3.4-9,3.4-12.5,0c-3.4-3.4-3.4-9,0-12.5c3.4-3.4,9-3.4,12.5,0C21.5,9,21.5,14.6,18.1,18.1z"/>
</g>
</svg>
