<?xml version="1.0" encoding="UTF-8" standalone="no"?>
<!DOCTYPE svg PUBLIC "-//W3C//DTD SVG 1.1//EN" "http://www.w3.org/Graphics/SVG/1.1/DTD/svg11.dtd">
<svg width="100%" height="100%" viewBox="0 0 43 47" version="1.1" xmlns="http://www.w3.org/2000/svg" xmlns:xlink="http://www.w3.org/1999/xlink" xml:space="preserve" xmlns:serif="http://www.serif.com/" style="fill-rule:evenodd;clip-rule:evenodd;stroke-linejoin:round;stroke-miterlimit:2;">
    <g transform="matrix(1,0,0,1,-3.725,-1.725)">
        <path d="M21,2L21,5L23,5L23,6.098C12.35,7.107 4,16.089 4,27C4,38.586 13.414,48 25,48C36.586,48 46,38.586 46,27C46,16.089 37.65,7.107 27,6.098L27,5L29,5L29,2L21,2ZM40.236,5.146L38.23,7.152L42.846,11.768L44.852,9.762L40.236,5.146ZM25,8C35.505,8 44,16.495 44,27C44,37.505 35.505,46 25,46C14.495,46 6,37.505 6,27C6,16.495 14.495,8 25,8ZM14.99,15.99C14.442,15.99 13.99,16.442 13.99,16.99C13.99,17.26 14.1,17.519 14.293,17.707L23.07,26.484C23.025,26.652 23.001,26.826 23,27C23,28.097 23.903,29 25,29C25.175,29 25.349,28.977 25.518,28.932L27.293,30.707C27.481,30.903 27.742,31.014 28.014,31.014C28.563,31.014 29.014,30.563 29.014,30.014C29.014,29.742 28.903,29.481 28.707,29.293L26.93,27.516C26.975,27.348 26.999,27.174 27,27C27,25.903 26.097,25 25,25C24.825,25 24.651,25.023 24.482,25.068L15.707,16.293C15.519,16.1 15.26,15.99 14.99,15.99Z" style="fill-rule:nonzero;stroke:black;stroke-width:0.55px;"/>
    </g>
</svg>
